<svg fill="none" height="434" stroke-linecap="square" stroke-miterlimit="10" viewBox="0 0 702 434" width="702" xmlns="http://www.w3.org/2000/svg" xmlns:xlink="http://www.w3.org/1999/xlink"><clipPath id="a"><path d="m103.7 61.125286h576.6v273.174714h-576.6z"/></clipPath><path d="m0 0h702v434h-702z" fill="#fff"/><path d="m103.5 334.5h577" stroke="#333" stroke-linecap="butt"/><path d="m103.5 243.5h577" stroke="#ccc" stroke-linecap="butt"/><path d="m103.5 152.5h577" stroke="#ccc" stroke-linecap="butt"/><path d="m103.5 61.5h577" stroke="#ccc" stroke-linecap="butt"/><path clip-path="url(#a)" d="m161.36 330.8307 115.32-10.6766 115.32-29.93083 115.32-66.79578 115.32-129.13879" stroke="#8db8ff" stroke-linecap="butt" stroke-width="2"/><path clip-path="url(#a)" d="m161.36 331.805 115.32-9.13312 115.32-28.03228 115.32-63.16256 115.32-114.69696" stroke="#ea4335" stroke-linecap="butt" stroke-width="2"/><g fill="none"><path clip-path="url(#a)" d="m164.36 330.8307c0 1.65685-1.34314 3-3 3s-3-1.34315-3-3c0-1.65687 1.34314-3 3-3s3 1.34313 3 3z"/><path clip-path="url(#a)" d="m279.68 320.1541c0 1.65684-1.34315 3-3 3-1.65687 0-3-1.34316-3-3 0-1.65685 1.34313-3 3-3 1.65685 0 3 1.34315 3 3z"/><path clip-path="url(#a)" d="m395 290.22327c0 1.65686-1.34314 3-3 3s-3-1.34314-3-3c0-1.65687 1.34314-3 3-3s3 1.34313 3 3z"/><path clip-path="url(#a)" d="m510.32 223.42749c0 1.65686-1.34313 3-3 3-1.65685 0-3-1.34314-3-3s1.34315-3 3-3c1.65687 0 3 1.34314 3 3z"/><path clip-path="url(#a)" d="m625.64 94.2887c0 1.65685-1.3431 3-3 3-1.65685 0-3-1.34315-3-3 0-1.65686 1.34315-3 3-3 1.6569 0 3 1.34314 3 3z"/><path clip-path="url(#a)" d="m164.36 331.805c0 1.65685-1.34314 3-3 3s-3-1.34315-3-3c0-1.65684 1.34314-3 3-3s3 1.34316 3 3z"/><path clip-path="url(#a)" d="m279.68 322.67188c0 1.65682-1.34315 3-3 3-1.65687 0-3-1.34318-3-3 0-1.65688 1.34313-3 3-3 1.65685 0 3 1.34312 3 3z"/><path clip-path="url(#a)" d="m395 294.6396c0 1.65685-1.34314 3-3 3s-3-1.34315-3-3c0-1.65687 1.34314-3 3-3s3 1.34313 3 3z"/><path clip-path="url(#a)" d="m510.32 231.47704c0 1.65686-1.34313 3-3 3-1.65685 0-3-1.34314-3-3 0-1.65685 1.34315-3 3-3 1.65687 0 3 1.34315 3 3z"/><path clip-path="url(#a)" d="m625.64 116.78008c0 1.656855-1.3431 3-3 3-1.65685 0-3-1.343145-3-3 0-1.65685 1.34315-3 3-3 1.6569 0 3 1.34315 3 3z"/></g><g fill="#000"><path d="m354.1875 411.8781v-12.90624h1.4375v1.20314q.51562-.70314 1.15625-1.0625.64063-.3594 1.54687-.3594 1.20313 0 2.10938.625.92188.6094 1.39062 1.7344.46876 1.10936.46876 2.4531 0 1.4219-.51563 2.57814-.51563 1.14062-1.5 1.76562-.98437.60938-2.0625.60938-.78125 0-1.42187-.32814-.625-.34374-1.03126-.85936v4.54686zm1.4375-8.1875q0 1.7969.71875 2.65626.73437.85938 1.76563.85938 1.0625 0 1.8125-.89064.75-.8906.75-2.7656 0-1.78126-.73438-2.6719-.73438-.8906-1.75-.8906-1.01562 0-1.79688.9531-.76562.9375-.76562 2.75zm14.95312 1.6094 1.64063.2031q-.39063 1.4219-1.4375 2.21876-1.04687.79688-2.67187.79688-2.04688 0-3.25-1.26564-1.20313-1.2656-1.20313-3.54686 0-2.34374 1.20313-3.64064 1.21874-1.3125 3.15624-1.3125 1.875 0 3.0625 1.28126 1.1875 1.26564 1.1875 3.57814 0 .1406-.01562.42186h-6.95312q.07812 1.54688.85937 2.35938.79687.8125 1.95313.8125.875 0 1.48437-.45314.625-.4531.98437-1.4531zm-5.20312-2.5625h5.21875q-.10937-1.1719-.59375-1.76564-.76562-.92186-1.96875-.92186-1.07813 0-1.82813.73436-.73437.73438-.82812 1.95314zm8.79688 5.5625v-9.32814h1.42187v1.40624q.54687-.98436 1-1.29686.46875-.32814 1.01563-.32814.8125 0 1.625.51564l-.53126 1.46876q-.59374-.34376-1.17187-.34376-.51563 0-.9375.3125-.40625.3125-.57813.85936-.26562.84376-.26562 1.84376v4.89064zm12.10937-3.4219 1.54687.20314q-.25 1.60936-1.29687 2.53126-1.04687.90624-2.57813.90624-1.92187 0-3.09374-1.25-1.15626-1.26564-1.15626-3.59374 0-1.51564.5-2.64064.5-1.14062 1.51563-1.70312 1.03125-.57814 2.23437-.57814 1.53126 0 2.48438.78126.96875.76564 1.25 2.17188l-1.54688.23436q-.21874-.9375-.78124-1.40624-.54688-.48436-1.34376-.48436-1.1875 0-1.9375.85936-.75.85938-.75 2.71874 0 1.875.71876 2.7344.71874.84374 1.89062.84374.92188 0 1.54688-.5625.625-.57814.79687-1.76564zm9.29687.4219 1.64063.2031q-.39063 1.4219-1.4375 2.21876-1.04687.79688-2.67187.79688-2.04688 0-3.25-1.26564-1.20313-1.2656-1.20313-3.54686 0-2.34374 1.20313-3.64064 1.21874-1.3125 3.15624-1.3125 1.875 0 3.0625 1.28126 1.1875 1.26564 1.1875 3.57814 0 .1406-.01562.42186h-6.95312q.07812 1.54688.85937 2.35938.79687.8125 1.95313.8125.875 0 1.48437-.45314.625-.4531.98437-1.4531zm-5.20312-2.5625h5.21875q-.10937-1.1719-.59375-1.76564-.76562-.92186-1.96875-.92186-1.07813 0-1.82813.73436-.73437.73438-.82812 1.95314zm8.8125 5.5625v-9.32814h1.42188v1.32814q1.03124-1.5469 2.96874-1.5469.84376 0 1.54688.3125.71875.2969 1.0625.7969.35938.48436.5 1.15624.07812.4375.07812 1.54686v5.7344h-1.57812v-5.6719q0-.96874-.1875-1.4531-.17188-.4844-.65625-.76564-.46875-.28126-1.09375-.28126-1.01562 0-1.75.64064-.73438.64062-.73438 2.4375v5.09376zm13.45312-1.4219.23438 1.40626q-.67188.14064-1.20312.14064-.85938 0-1.34376-.26564-.46874-.28126-.65624-.71876-.1875-.4531-.1875-1.875v-5.375h-1.17188v-1.21874h1.17188v-2.3125l1.5625-.95312v3.26562h1.59374v1.21874h-1.59374v5.46876q0 .67188.07812.875.09375.1875.28125.29688.1875.10936.54687.10936.25 0 .6875-.0625zm1.5625-9.6406v-1.82814h1.57813v1.82814zm0 11.0625v-9.32814h1.57813v9.32814zm3.95313 0v-12.89064h1.57813v12.89064zm10.42187-3 1.64063.2031q-.39063 1.4219-1.4375 2.21876-1.04687.79688-2.67187.79688-2.04688 0-3.25-1.26564-1.20313-1.2656-1.20313-3.54686 0-2.34374 1.20313-3.64064 1.21874-1.3125 3.15624-1.3125 1.875 0 3.0625 1.28126 1.1875 1.26564 1.1875 3.57814 0 .1406-.01562.42186h-6.95312q.07812 1.54688.85937 2.35938.79687.8125 1.95313.8125.875 0 1.48437-.45314.625-.4531.98437-1.4531zm-5.20312-2.5625h5.21875q-.10937-1.1719-.59375-1.76564-.76562-.92186-1.96875-.92186-1.07813 0-1.82813.73436-.73437.73438-.82812 1.95314z"/><path d="m38.69999 263.50952h-12.890628v-1.57812h7.359378l-3.796878-3.73438v-2.04687l3.453128 3.5625 5.875-3.9375v1.95312l-4.765626 3.09375 1.0625 1.10938h3.703126zm0-10.4375v1.46875h-12.890628v-1.59375h4.609375q-1.265625-1-1.265625-2.54687 0-.85938.359375-1.625.34375-.78125.96875-1.26563.625-.5 1.515625-.78125.890628-.28125 1.890628-.28125 2.40625 0 3.71875 1.1875 1.3125 1.17188 1.3125 2.84375 0 1.64063-1.390626 2.59375zm-4.734376.01563q1.671876 0 2.421876-.45313 1.21875-.75 1.21875-2.03125 0-1.03125-.890626-1.78125-.90625-.76562-2.6875-.76562-1.828124 0-2.703127.73437-.875.71875-.875 1.75 0 1.03125.90625 1.79688.906253.75 2.609377.75zm3.3125-17.01563 1.40625-.23437q.140626.67187.140626 1.20312 0 .85938-.265626 1.34375-.28125.46875-.71875.65625-.453124.1875-1.875.1875h-5.375002v1.17188h-1.21875v-1.17188h-2.3125l-.953125-1.5625h3.265625v-1.59375h1.21875v1.59375h5.468752q.671876 0 .875-.07812.1875-.09375.296876-.28125.109374-.1875.109374-.54688 0-.25-.0625-.6875zm1.421876-1.53125h-9.328128v-1.42187h1.40625q-.984375-.54688-1.296875-1-.328125-.46875-.328125-1.01563 0-.8125.515625-1.625l1.46875.53125q-.34375.59375-.34375 1.17188 0 .51562.3125.9375.3125.40625.859375.57812.843752.26563 1.843752.26563h4.890626zm-1.15625-12.10937q.75.875 1.0625 1.70312.3125.8125.3125 1.73438 0 1.54687-.75 2.375-.765626.8125-1.9375.8125-.671876 0-1.234376-.3125-.578124-.3125-.921874-.8125-.34375-.5-.515626-1.14063-.125-.46875-.234374-1.40625-.234376-1.90625-.546876-2.8125-.328124-.01562-.421874-.01562-.953128 0-1.359378.45312-.53125.60938-.53125 1.79688 0 1.125.390625 1.65625.390625.53125 1.390627.78125l-.21875 1.54687q-1.000002-.21875-1.609377-.6875-.609375-.48437-.9375-1.39062-.328125-.92188-.328125-2.14063 0-1.1875.28125-1.9375.28125-.75.71875-1.09375.421875-.35937 1.0625-.5.40625-.07812 1.468752-.07812h2.109376q2.203124 0 2.796874-.09375.578126-.10938 1.109376-.40625v1.65625q-.5.25-1.15625.3125zm-3.53125.14062q.359374.85938.59375 2.57813.140624.96875.328124 1.375.171876.40625.515626.625.328124.21875.75.21875.625 0 1.046874-.46875.421876-.48438.421876-1.40625 0-.92188-.390626-1.625-.40625-.71875-1.09375-1.04688-.546874-.25-1.59375-.25zm4.6875-4.04687h-9.328128v-1.42188h1.328125q-1.546875-1.03125-1.546875-2.96875 0-.84375.3125-1.54687.296875-.71875.796875-1.0625.484375-.35938 1.15625-.5.4375-.07813 1.546877-.07813h5.734376v1.57813h-5.671876q-.96875 0-1.453127.1875-.484375.17187-.765625.65625-.28125.46875-.28125 1.09375 0 1.01562.640625 1.75.640625.73437 2.437503.73437h5.09375zm-2.78125-9.35938-.25-1.57812q.9375-.125 1.4375-.71875.5-.60938.5-1.6875 0-1.09375-.4375-1.625-.453126-.53125-1.046876-.53125-.53125 0-.84375.46875-.203124.32812-.53125 1.625-.4375 1.73437-.75 2.40625-.328124.67187-.890624 1.03125-.578126.34375-1.265628.34375-.625 0-1.15625-.28125-.53125-.29688-.875-.78125-.28125-.375-.46875-1.01563-.1875-.64062-.1875-1.35937 0-1.10938.328125-1.9375.3125-.82813.859375-1.21875.53125-.40625 1.4375-.54688l.203125 1.54688q-.71875.10937-1.125.60937-.40625.5-.40625 1.42188 0 1.09375.359375 1.5625.359375.46875.84375.46875.3125 0 .562502-.20313.25-.1875.421876-.59375.078124-.25.40625-1.40625.4375-1.67187.734374-2.32812.28125-.67188.828126-1.04688.546874-.39062 1.34375-.39062.796874 0 1.5.46875.703124.45312 1.09375 1.32812.375.875.375 1.96875 0 1.82813-.75 2.78125-.765626.95313-2.25 1.21875zm2.78125-10.01562h-8.109378v1.39062h-1.21875v-1.39062h-1q-.9375 0-1.390625-.17188-.625-.21875-1-.79687-.390625-.57813-.390625-1.625 0-.65625.15625-1.46875l1.390625.23437q-.09375.5-.09375.9375 0 .71875.3125 1.01563.296875.29687 1.140625.29687h.875v-1.8125h1.21875v1.8125h8.109378zm-3-11.01563.203124-1.64062q1.421876.39062 2.21875 1.4375.796876 1.04687.796876 2.67187 0 2.04688-1.265626 3.25-1.265624 1.20313-3.546874 1.20313-2.343753 0-3.640628-1.20313-1.3125-1.21875-1.3125-3.15625 0-1.875 1.28125-3.0625 1.265625-1.1875 3.578128-1.1875.140624 0 .421874.01563v6.95312q1.546876-.07812 2.359376-.85937.8125-.79688.8125-1.95313 0-.875-.453126-1.48437-.453124-.625-1.453124-.98438zm-2.5625 5.20313v-5.21875q-1.171878.10937-1.765628.59375-.921875.76562-.921875 1.96875 0 1.07812.734375 1.82812.734375.73438 1.953128.82813zm5.5625-8.79688h-9.328128v-1.42187h1.40625q-.984375-.54688-1.296875-1-.328125-.46875-.328125-1.01563 0-.8125.515625-1.625l1.46875.53125q-.34375.59375-.34375 1.17188 0 .51562.3125.9375.3125.40625.859375.57812.843752.26563 1.843752.26563h4.890626zm0-6h-9.328128v-1.42187h1.40625q-.984375-.54688-1.296875-1-.328125-.46875-.328125-1.01563 0-.8125.515625-1.625l1.46875.53125q-.34375.59375-.34375 1.17188 0 .51562.3125.9375.3125.40625.859375.57812.843752.26563 1.843752.26563h4.890626zm-3-12.40625.203124-1.64062q1.421876.39062 2.21875 1.4375.796876 1.04687.796876 2.67187 0 2.04688-1.265626 3.25-1.265624 1.20313-3.546874 1.20313-2.343753 0-3.640628-1.20313-1.3125-1.21875-1.3125-3.15625 0-1.875 1.28125-3.0625 1.265625-1.1875 3.578128-1.1875.140624 0 .421874.01563v6.95312q1.546876-.07812 2.359376-.85937.8125-.79688.8125-1.95313 0-.875-.453126-1.48437-.453124-.625-1.453124-.98438zm-2.5625 5.20313v-5.21875q-1.171878.10937-1.765628.59375-.921875.76562-.921875 1.96875 0 1.07812.734375 1.82812.734375.73438 1.953128.82813zm5.5625-14.875h-1.171876q1.390626.89062 1.390626 2.625 0 1.10937-.609376 2.04687-.625.9375-1.71875 1.45313-1.109374.51562-2.546874.51562-1.40625 0-2.531253-.46875-1.140625-.46875-1.75-1.39062-.609375-.9375-.609375-2.09375 0-.84375.359375-1.5.359375-.65625.921875-1.07813h-4.625v-1.5625h12.890628zm-4.65625 5.01562q1.796874 0 2.6875-.75.875-.76562.875-1.79687 0-1.03125-.84375-1.75-.84375-.73438-2.59375-.73438-1.90625 0-2.796878.73438-.90625.73437-.90625 1.8125 0 1.0625.859375 1.78125.859377.70312 2.718753.70312z"/><path d="m91.2 334.0656q0-1.53124.3125-2.4531.3125-.9375.92187-1.4375.625-.5 1.5625-.5.6875 0 1.20313.28124.53125.28126.875.8125.34375.51562.53125 1.26562.1875.75.1875 2.03124 0 1.51564-.3125 2.4375-.29688.9219-.92188 1.4375-.60937.5-1.5625.5-1.23437 0-1.95312-.8906-.84375-1.0625-.84375-3.4844zm1.07812 0q0 2.1094.5 2.8125.5.70314 1.21875.70314.73438 0 1.21875-.70314.5-.7031.5-2.8125 0-2.125-.5-2.8125-.48437-.7031-1.23437-.7031-.71875 0-1.15625.60936-.54688.78124-.54688 2.90624z"/><path d="m75.74687 246.22614v1.01562h-5.6875q0-.375.125-.73437.21875-.57813.6875-1.14063.48438-.5625 1.39063-1.29687 1.40625-1.15625 1.89062-1.82813.5-.67187.5-1.26562 0-.625-.45312-1.04688-.45313-.4375-1.17188-.4375-.76562 0-1.21875.45313-.45312.45312-.46875 1.26562l-1.07812-.10937q.10937-1.21875.82812-1.84375.73438-.64063 1.96875-.64063 1.23438 0 1.95313.6875.71875.6875.71875 1.70313 0 .51562-.21875 1.01562-.20313.48438-.70313 1.04688-.48437.54687-1.60937 1.5-.95313.79687-1.23438 1.09375-.26562.28125-.4375.5625zm1.45313-3.21875q0-1.53125.3125-2.45313.3125-.9375.92187-1.4375.625-.5 1.5625-.5.6875 0 1.20313.28125.53125.28125.875.8125.34375.51563.53125 1.26563.1875.75.1875 2.03125 0 1.51562-.3125 2.4375-.29688.92187-.92188 1.4375-.60937.5-1.5625.5-1.23437 0-1.95312-.89063-.84375-1.0625-.84375-3.48437zm1.07812 0q0 2.10937.5 2.8125.5.70312 1.21875.70312.73438 0 1.21875-.70312.5-.70313.5-2.8125 0-2.125-.5-2.8125-.48437-.70313-1.23437-.70313-.71875 0-1.15625.60938-.54688.78125-.54688 2.90625zm5.92188 0q0-1.53125.3125-2.45313.3125-.9375.92187-1.4375.625-.5 1.5625-.5.6875 0 1.20313.28125.53125.28125.875.8125.34375.51563.53125 1.26563.1875.75.1875 2.03125 0 1.51562-.3125 2.4375-.29688.92187-.92188 1.4375-.60937.5-1.5625.5-1.23437 0-1.95312-.89063-.84375-1.0625-.84375-3.48437zm1.07812 0q0 2.10937.5 2.8125.5.70312 1.21875.70312.73438 0 1.21875-.70312.5-.70313.5-2.8125 0-2.125-.5-2.8125-.48437-.70313-1.23437-.70313-.71875 0-1.15625.60938-.54688.78125-.54688 2.90625zm5.92188 0q0-1.53125.3125-2.45313.3125-.9375.92187-1.4375.625-.5 1.5625-.5.6875 0 1.20313.28125.53125.28125.875.8125.34375.51563.53125 1.26563.1875.75.1875 2.03125 0 1.51562-.3125 2.4375-.29688.92187-.92188 1.4375-.60937.5-1.5625.5-1.23437 0-1.95312-.89063-.84375-1.0625-.84375-3.48437zm1.07812 0q0 2.10937.5 2.8125.5.70312 1.21875.70312.73438 0 1.21875-.70312.5-.70313.5-2.8125 0-2.125-.5-2.8125-.48437-.70313-1.23437-.70313-.71875 0-1.15625.60938-.54688.78125-.54688 2.90625z"/><path d="m73.575 156.18352v-2.0625h-3.71875v-.96875l3.92187-5.5625h.85938v5.5625h1.15625v.96875h-1.15625v2.0625zm0-3.03125v-3.85937l-2.6875 3.85937zm3.625-1.20313q0-1.53124.3125-2.45312.3125-.9375.92187-1.4375.625-.5 1.5625-.5.6875 0 1.20313.28125.53125.28125.875.8125.34375.51563.53125 1.26563.1875.75.1875 2.03124 0 1.51563-.3125 2.4375-.29688.92188-.92188 1.4375-.60937.5-1.5625.5-1.23437 0-1.95312-.89062-.84375-1.0625-.84375-3.48438zm1.07812 0q0 2.10938.5 2.8125.5.70313 1.21875.70313.73438 0 1.21875-.70313.5-.70312.5-2.8125 0-2.125-.5-2.8125-.48437-.70312-1.23437-.70312-.71875 0-1.15625.60938-.54688.78124-.54688 2.90624zm5.92188 0q0-1.53124.3125-2.45312.3125-.9375.92187-1.4375.625-.5 1.5625-.5.6875 0 1.20313.28125.53125.28125.875.8125.34375.51563.53125 1.26563.1875.75.1875 2.03124 0 1.51563-.3125 2.4375-.29688.92188-.92188 1.4375-.60937.5-1.5625.5-1.23437 0-1.95312-.89062-.84375-1.0625-.84375-3.48438zm1.07812 0q0 2.10938.5 2.8125.5.70313 1.21875.70313.73438 0 1.21875-.70313.5-.70312.5-2.8125 0-2.125-.5-2.8125-.48437-.70312-1.23437-.70312-.71875 0-1.15625.60938-.54688.78124-.54688 2.90624zm5.92188 0q0-1.53124.3125-2.45312.3125-.9375.92187-1.4375.625-.5 1.5625-.5.6875 0 1.20313.28125.53125.28125.875.8125.34375.51563.53125 1.26563.1875.75.1875 2.03124 0 1.51563-.3125 2.4375-.29688.92188-.92188 1.4375-.60937.5-1.5625.5-1.23437 0-1.95312-.89062-.84375-1.0625-.84375-3.48438zm1.07812 0q0 2.10938.5 2.8125.5.70313 1.21875.70313.73438 0 1.21875-.70313.5-.70312.5-2.8125 0-2.125-.5-2.8125-.48437-.70312-1.23437-.70312-.71875 0-1.15625.60938-.54688.78124-.54688 2.90624z"/><path d="m75.66875 58.640915-1.04688.078125q-.14062-.625-.39062-.90625-.4375-.453125-1.0625-.453125-.5 0-.89063.28125-.48437.375-.78125 1.078125-.28125.6875-.29687 1.96875.375-.578125.92187-.859375.5625-.28125 1.17188-.28125 1.04687 0 1.78125.78125.75.78125.75 2 0 .8125-.35938 1.515625-.34375.6875-.95312 1.0625-.60938.359375-1.375.359375-1.32813 0-2.15625-.96875-.82813-.96875-.82813-3.1875 0-2.5.92188-3.625.79687-.984375 2.15625-.984375 1.01562 0 1.65625.578125.65625.5625.78125 1.5625zm-4.29688 3.703125q0 .546875.21875 1.046875.23438.484375.64063.75.42187.265625.89062.265625.65625 0 1.14063-.53125.48437-.546875.48437-1.46875 0-.890625-.48437-1.40625-.46875-.515625-1.1875-.515625-.71875 0-1.21875.515625-.48438.515625-.48438 1.34375zm5.82813-1.453125q0-1.53125.3125-2.453125.3125-.9375.92187-1.4375.625-.5 1.5625-.5.6875 0 1.20313.28125.53125.28125.875.8125.34375.515625.53125 1.265625.1875.75.1875 2.03125 0 1.515625-.3125 2.4375-.29688.921875-.92188 1.4375-.60937.5-1.5625.5-1.23437 0-1.95312-.890625-.84375-1.0625-.84375-3.484375zm1.07812 0q0 2.109375.5 2.8125.5.703125 1.21875.703125.73438 0 1.21875-.703125.5-.703125.5-2.8125 0-2.125-.5-2.8125-.48437-.703125-1.23437-.703125-.71875 0-1.15625.609375-.54688.78125-.54688 2.90625zm5.92188 0q0-1.53125.3125-2.453125.3125-.9375.92187-1.4375.625-.5 1.5625-.5.6875 0 1.20313.28125.53125.28125.875.8125.34375.515625.53125 1.265625.1875.75.1875 2.03125 0 1.515625-.3125 2.4375-.29688.921875-.92188 1.4375-.60937.5-1.5625.5-1.23437 0-1.95312-.890625-.84375-1.0625-.84375-3.484375zm1.07812 0q0 2.109375.5 2.8125.5.703125 1.21875.703125.73438 0 1.21875-.703125.5-.703125.5-2.8125 0-2.125-.5-2.8125-.48437-.703125-1.23437-.703125-.71875 0-1.15625.609375-.54688.78125-.54688 2.90625zm5.92188 0q0-1.53125.3125-2.453125.3125-.9375.92187-1.4375.625-.5 1.5625-.5.6875 0 1.20313.28125.53125.28125.875.8125.34375.515625.53125 1.265625.1875.75.1875 2.03125 0 1.515625-.3125 2.4375-.29688.921875-.92188 1.4375-.60937.5-1.5625.5-1.23437 0-1.95312-.890625-.84375-1.0625-.84375-3.484375zm1.07812 0q0 2.109375.5 2.8125.5.703125 1.21875.703125.73438 0 1.21875-.703125.5-.703125.5-2.8125 0-2.125-.5-2.8125-.48437-.703125-1.23437-.703125-.71875 0-1.15625.609375-.54688.78125-.54688 2.90625z"/><path d="m147.5475 363.8781v-12.90624h1.4375v1.20314q.51563-.70314 1.15625-1.0625.64063-.3594 1.54688-.3594 1.20312 0 2.10937.625.92188.6094 1.39063 1.7344.46875 1.10936.46875 2.4531 0 1.4219-.51563 2.57814-.51562 1.14062-1.5 1.76562-.98437.60938-2.0625.60938-.78125 0-1.42187-.32814-.625-.34374-1.03125-.85936v4.54686zm1.4375-8.1875q0 1.7969.71875 2.65626.73438.85938 1.76563.85938 1.0625 0 1.8125-.89064.75-.8906.75-2.7656 0-1.78126-.73438-2.6719-.73437-.8906-1.75-.8906-1.01562 0-1.79687.9531-.76563.9375-.76563 2.75zm14.07813 4.6094h-1.57813v-10.07814q-.57812.54688-1.5 1.09374-.92187.53126-1.67187.8125v-1.53124q1.32812-.625 2.32812-1.51562 1-.89064 1.40625-1.71874h1.01563zm4.04687-6.3594q0-2.28124.46875-3.67186.46875-1.39064 1.39063-2.14064.9375-.7656 2.34375-.7656 1.03125 0 1.8125.42186.78125.40624 1.28125 1.20314.51562.78124.8125 1.92186.29687 1.125.29687 3.03124 0 2.26564-.46875 3.6719-.46875 1.3906-1.40625 2.15624-.92187.75-2.32812.75-1.875 0-2.9375-1.32814-1.26563-1.60936-1.26563-5.25zm1.625 0q0 3.1719.73438 4.2344.75 1.04686 1.84375 1.04686 1.07812 0 1.82812-1.04686.75-1.0625.75-4.2344 0-3.17186-.75-4.21874-.75-1.04686-1.84375-1.04686-1.09375 0-1.75.92186-.8125 1.17188-.8125 4.34374z"/><path d="m262.8675 363.8781v-12.90624h1.4375v1.20314q.51562-.70314 1.15624-1.0625.64063-.3594 1.54688-.3594 1.20312 0 2.10938.625.92187.6094 1.39062 1.7344.46875 1.10936.46875 2.4531 0 1.4219-.51563 2.57814-.51562 1.14062-1.5 1.76562-.98437.60938-2.0625.60938-.78124 0-1.42187-.32814-.625-.34374-1.03125-.85936v4.54686zm1.4375-8.1875q0 1.7969.71874 2.65626.73438.85938 1.76563.85938 1.0625 0 1.8125-.89064.75-.8906.75-2.7656 0-1.78126-.73437-2.6719-.73438-.8906-1.75-.8906-1.01563 0-1.79688.9531-.76562.9375-.76562 2.75zm16.4375 3.09376v1.51564h-8.51563q-.01563-.57814.1875-1.09376.32813-.875 1.03125-1.71874.71875-.84376 2.07812-1.95314 2.09376-1.71876 2.82813-2.71876.75-1.0156.75-1.90624 0-.95312-.67187-1.59376-.67188-.6406-1.75-.6406-1.15626 0-1.84376.6875-.67187.6875-.6875 1.8906l-1.625-.17186q.17188-1.8125 1.25-2.76564 1.09376-.9531 2.9375-.9531 1.84376 0 2.92188 1.03124 1.09375 1.03126 1.09375 2.54686 0 .76564-.32813 1.51564-.3125.75-1.04687 1.57812-.73437.82814-2.4375 2.26564-1.42187 1.2031-1.82813 1.625-.40624.42186-.65624.85936zm1.6875-1.85936 1.65624-.14064q.1875 1.21874.85938 1.82814.67188.60936 1.625.60936 1.14062 0 1.92188-.85936.79687-.8594.79687-2.2969 0-1.34374-.76563-2.125-.75-.78124-1.98437-.78124-.76563 0-1.39063.34374-.60937.34376-.95312.90626l-1.48438-.20312 1.25-6.60938h6.40626v1.5h-5.14063l-.70313 3.46874q1.17188-.8125 2.4375-.8125 1.6875 0 2.84376 1.1719 1.17187 1.17186 1.17187 3 0 1.75-1.03125 3.03124-1.23438 1.5625-3.375 1.5625-1.76562 0-2.875-.98438-1.10938-.98436-1.26562-2.60936z"/><path d="m378.1875 363.8781v-12.90624h1.4375v1.20314q.51562-.70314 1.15625-1.0625.64063-.3594 1.54687-.3594 1.20313 0 2.10938.625.92188.6094 1.39062 1.7344.46876 1.10936.46876 2.4531 0 1.4219-.51563 2.57814-.51563 1.14062-1.5 1.76562-.98437.60938-2.0625.60938-.78125 0-1.42187-.32814-.625-.34374-1.03126-.85936v4.54686zm1.4375-8.1875q0 1.7969.71875 2.65626.73437.85938 1.76563.85938 1.0625 0 1.8125-.89064.75-.8906.75-2.7656 0-1.78126-.73438-2.6719-.73438-.8906-1.75-.8906-1.01562 0-1.79688.9531-.76562.9375-.76562 2.75zm8.125 1.2344 1.65625-.14064q.1875 1.21874.85937 1.82814.67188.60936 1.625.60936 1.14063 0 1.92188-.85936.79688-.8594.79688-2.2969 0-1.34374-.76563-2.125-.75-.78124-1.98437-.78124-.76563 0-1.39063.34374-.60937.34376-.95313.90626l-1.48437-.20312 1.25-6.60938h6.40625v1.5h-5.14062l-.70313 3.46874q1.17187-.8125 2.4375-.8125 1.6875 0 2.84375 1.1719 1.17188 1.17186 1.17188 3 0 1.75-1.03126 3.03124-1.23437 1.5625-3.375 1.5625-1.76562 0-2.875-.98438-1.10937-.98436-1.26562-2.60936zm10-2.9844q0-2.28124.46875-3.67186.46875-1.39064 1.39063-2.14064.9375-.7656 2.34374-.7656 1.03126 0 1.8125.42186.78126.40624 1.28126 1.20314.51562.78124.8125 1.92186.29687 1.125.29687 3.03124 0 2.26564-.46875 3.6719-.46875 1.3906-1.40625 2.15624-.92187.75-2.32813.75-1.875 0-2.9375-1.32814-1.26562-1.60936-1.26562-5.25zm1.625 0q0 3.1719.73438 4.2344.75 1.04686 1.84374 1.04686 1.07813 0 1.82813-1.04686.75-1.0625.75-4.2344 0-3.17186-.75-4.21874-.75-1.04686-1.84375-1.04686-1.09375 0-1.75.92186-.8125 1.17188-.8125 4.34374z"/><path d="m493.5075 363.8781v-12.90624h1.4375v1.20314q.51563-.70314 1.15626-1.0625.64062-.3594 1.54687-.3594 1.20313 0 2.10937.625.92188.6094 1.39063 1.7344.46875 1.10936.46875 2.4531 0 1.4219-.51562 2.57814-.51563 1.14062-1.5 1.76562-.98438.60938-2.0625.60938-.78126 0-1.42188-.32814-.625-.34374-1.03125-.85936v4.54686zm1.4375-8.1875q0 1.7969.71876 2.65626.73437.85938 1.76562.85938 1.0625 0 1.8125-.89064.75-.8906.75-2.7656 0-1.78126-.73438-2.6719-.73437-.8906-1.75-.8906-1.01562 0-1.79687.9531-.76563.9375-.76563 2.75zm8.23438-6.59374v-1.51562h8.32812v1.23436q-1.21874 1.3125-2.4375 3.4844-1.20312 2.15624-1.85937 4.4531-.48437 1.625-.60937 3.5469h-1.625q.03124-1.51564.59374-3.6719.57813-2.15624 1.64063-4.15624 1.0625-2 2.26563-3.375zm9.89062 7.82814 1.65626-.14064q.1875 1.21874.85937 1.82814.67187.60936 1.625.60936 1.14063 0 1.92187-.85936.7969-.8594.7969-2.2969 0-1.34374-.76564-2.125-.75-.78124-1.98436-.78124-.76564 0-1.39064.34374-.60936.34376-.95313.90626l-1.48437-.20312 1.25-6.60938h6.40624v1.5h-5.1406l-.70314 3.46874q1.17187-.8125 2.4375-.8125 1.6875 0 2.84374 1.1719 1.1719 1.17186 1.1719 3 0 1.75-1.03127 3.03124-1.23437 1.5625-3.375 1.5625-1.76563 0-2.875-.98438-1.10937-.98436-1.26563-2.60936z"/><path d="m608.8275 363.8781v-12.90624h1.4375v1.20314q.51564-.70314 1.15626-1.0625.64064-.3594 1.54688-.3594 1.20312 0 2.10936.625.9219.6094 1.39064 1.7344.46876 1.10936.46876 2.4531 0 1.4219-.51564 2.57814-.51562 1.14062-1.5 1.76562-.98436.60938-2.0625.60938-.78126 0-1.42186-.32814-.625-.34374-1.03126-.85936v4.54686zm1.4375-8.1875q0 1.7969.71876 2.65626.73438.85938 1.76564.85938 1.0625 0 1.8125-.89064.75-.8906.75-2.7656 0-1.78126-.7344-2.6719-.73436-.8906-1.75-.8906-1.0156 0-1.79686.9531-.76564.9375-.76564 2.75zm8.3594 1.625 1.5156-.1406q.20314 1.0781.7344 1.5625.54686.48436 1.40624.48436.73436 0 1.28126-.32812.54686-.34374.8906-.89064.3594-.5625.59376-1.5156.23438-.95314.23438-1.9375 0-.1094 0-.3125-.48438.75-1.3125 1.21874-.8125.46876-1.76564.46876-1.59374 0-2.7031-1.15626-1.1094-1.15624-1.1094-3.0625 0-1.95314 1.15626-3.14064 1.15624-1.2031 2.89064-1.2031 1.2656 0 2.29686.6875 1.04688.67186 1.57814 1.92186.54686 1.25.54686 3.625 0 2.46874-.54686 3.9375-.53126 1.45314-1.59376 2.21874-1.04688.76564-2.46874.76564-1.51564 0-2.4844-.82814-.9531-.84374-1.1406-2.375zm6.48436-5.6875q0-1.35936-.73436-2.15624-.71876-.79686-1.7344-.79686-1.0625 0-1.84374.85936-.78126.85938-.78126 2.23438 0 1.23436.7344 2 .75.76562 1.84374.76562 1.09376 0 1.79686-.76562.71876-.76564.71876-2.14064zm3.28124 2.3125q0-2.28124.46876-3.67186.46874-1.39064 1.39064-2.14064.9375-.7656 2.34374-.7656 1.03126 0 1.8125.42186.78126.40624 1.28126 1.20314.5156.78124.8125 1.92186.29686 1.125.29686 3.03124 0 2.26564-.46876 3.6719-.46874 1.3906-1.40624 2.15624-.92186.75-2.32812.75-1.875 0-2.9375-1.32814-1.26564-1.60936-1.26564-5.25zm1.625 0q0 3.1719.7344 4.2344.75 1.04686 1.84374 1.04686 1.07812 0 1.82812-1.04686.75-1.0625.75-4.2344 0-3.17186-.75-4.21874-.75-1.04686-1.84376-1.04686-1.09374 0-1.75.92186-.8125 1.17188-.8125 4.34374z"/></g><path d="m238.17426 32.175056h12" stroke="#8db8ff" stroke-linecap="butt" stroke-width="4"/><path d="m265.42426 38.675056v-1.171876q-.89063 1.390626-2.625 1.390626-1.10938 0-2.04688-.609376-.9375-.625-1.45312-1.71875-.51563-1.109374-.51563-2.546874 0-1.40625.46875-2.53125.46875-1.140625 1.39062-1.75.9375-.609375 2.09376-.609375.84374 0 1.5.359375.65624.359375 1.07812.921875v-4.625h1.5625v12.890625zm-5.01563-4.65625q0 1.796874.75 2.6875.76563.875 1.79687.875 1.03126 0 1.75-.84375.73438-.84375.73438-2.59375 0-1.90625-.73438-2.796875-.73437-.90625-1.8125-.90625-1.0625 0-1.78124.859375-.70313.859374-.70313 2.71875zm15.34375 1.65625 1.64062.203124q-.39062 1.421876-1.4375 2.21875-1.04687.796876-2.67187.796876-2.04687 0-3.25-1.265626-1.20313-1.265624-1.20313-3.546874 0-2.34375 1.20313-3.640625 1.21875-1.3125 3.15625-1.3125 1.875 0 3.0625 1.28125 1.1875 1.265625 1.1875 3.578125 0 .140624-.01562.421874h-6.95313q.07813 1.546876.85937 2.359376.79688.8125 1.95313.8125.875 0 1.48437-.453126.625-.453124.98438-1.453124zm-5.20312-2.5625h5.21874q-.10937-1.171875-.59374-1.765625-.76563-.921875-1.96876-.921875-1.07812 0-1.82812.734375-.73438.734375-.82812 1.953125zm8.17187 2.78125 1.57813-.25q.125.9375.71874 1.4375.60938.5 1.6875.5 1.09376 0 1.625-.4375.53126-.453126.53126-1.046876 0-.53125-.46876-.84375-.32812-.203124-1.625-.53125-1.73437-.4375-2.40624-.75-.67188-.328124-1.03126-.890624-.34374-.578126-.34374-1.265625 0-.625.28124-1.15625.29688-.53125.78126-.875.375-.28125 1.01562-.46875.64062-.1875 1.35938-.1875 1.10937 0 1.9375.328125.82812.3125 1.21874.859375.40626.53125.54688 1.4375l-1.54688.203125q-.10937-.71875-.60937-1.125-.5-.40625-1.42187-.40625-1.09376 0-1.5625.359375-.46876.359375-.46876.84375 0 .3125.20313.562499.1875.25.59375.421876.25.078124 1.40625.40625 1.67187.4375 2.32813.734374.67187.28125 1.04687.828126.39063.546874.39063 1.34375 0 .796874-.46876 1.5-.45312.703124-1.32812 1.09375-.875.375-1.96875.375-1.82813 0-2.78125-.75-.95312-.765626-1.21875-2.25zm9.65625 2.78125v-12.890625h1.57812v7.359375l3.73438-3.796875h2.04688l-3.5625 3.453125 3.9375 5.875h-1.95313l-3.09375-4.765626-1.10938 1.0625v3.703126zm12.4375-1.421876.23438 1.40625q-.67188.140626-1.20313.140626-.85937 0-1.34375-.265626-.46875-.28125-.65625-.71875-.1875-.453124-.1875-1.875v-5.374999h-1.17187v-1.21875h1.17187v-2.3125l1.5625-.953125v3.265625h1.59375v1.21875h-1.59375v5.468749q0 .671876.07813.875.09374.1875.28124.296876.1875.109374.54688.109374.25 0 .6875-.0625zm.95312-3.25q0-2.593749 1.45313-3.843749 1.20313-1.03125 2.92187-1.03125 1.9375 0 3.15626 1.265625 1.21874 1.265625 1.21874 3.484374 0 1.796876-.54687 2.828126-.53125 1.03125-1.5625 1.609374-1.03125.578126-2.26563.578126-1.95312 0-3.17187-1.25-1.20313-1.265626-1.20313-3.640626zm1.625 0q0 1.796876.78126 2.6875.78124.890626 1.96874.890626 1.1875 0 1.96876-.890626.78124-.90625.78124-2.734374 0-1.734376-.79687-2.625-.78125-.890625-1.95313-.890625-1.1875 0-1.96874.890625-.78126.890624-.78126 2.671874zm8.96876 8.25v-12.906249h1.4375v1.203125q.51562-.703125 1.15624-1.0625.64063-.359375 1.54688-.359375 1.20312 0 2.10938.625.92187.609375 1.39062 1.734375.46875 1.109374.46875 2.453124 0 1.421876-.51563 2.578126-.51562 1.140624-1.5 1.765624-.98437.609376-2.0625.609376-.78124 0-1.42187-.328126-.625-.34375-1.03125-.859374v4.546874zm1.4375-8.1875q0 1.796876.71874 2.65625.73438.859376 1.76563.859376 1.0625 0 1.8125-.890626.75-.890624.75-2.765624 0-1.78125-.73437-2.671875-.73438-.890625-1.75-.890625-1.01563 0-1.79688.953125-.76562.937499-.76562 2.749999z" fill="#1a1a1a"/><path d="m337.17426 32.175056h12" stroke="#ea4335" stroke-linecap="butt" stroke-width="4"/><path d="m358.36176 38.675056v-9.328125h1.42187v1.296875q.4375-.671875 1.15625-1.09375.73438-.421875 1.67188-.421875 1.03124 0 1.6875.4375.67187.421875.9375 1.203125 1.10937-1.640625 2.89062-1.640625 1.39062 0 2.125.78125.75.765625.75 2.359375v6.40625h-1.5625v-5.875q0-.953125-.15625-1.375-.15625-.421875-.5625-.671875-.40625-.25-.95313-.25-.98437 0-1.64062.65625-.64062.65625-.64062 2.093749v5.421876h-1.57813v-6.0625q0-1.0625-.39063-1.578125-.39062-.53125-1.26562-.53125-.67188 0-1.23438.359375-.5625.34375-.82812 1.015625-.25.671875-.25 1.953125v4.84375zm14.40624-4.671876q0-2.593749 1.45313-3.843749 1.20313-1.03125 2.92187-1.03125 1.9375 0 3.15626 1.265625 1.21874 1.265625 1.21874 3.484374 0 1.796876-.54687 2.828126-.53125 1.03125-1.5625 1.609374-1.03125.578126-2.26563.578126-1.95312 0-3.17187-1.25-1.20313-1.265626-1.20313-3.640626zm1.625 0q0 1.796876.78126 2.6875.78124.890626 1.96874.890626 1.1875 0 1.96876-.890626.78124-.90625.78124-2.734374 0-1.734376-.79687-2.625-.78125-.890625-1.95313-.890625-1.1875 0-1.96874.890625-.78126.890624-.78126 2.671874zm10.42188 4.671876h-1.46875v-12.890625h1.59375v4.609375q1-1.265625 2.54688-1.265625.85937 0 1.625.359375.78124.34375 1.26562.96875.5.625.78125 1.515625.28125.890625.28125 1.890625 0 2.40625-1.1875 3.71875-1.17188 1.3125-2.84375 1.3125-1.64063 0-2.59375-1.390626zm-.01562-4.734376q0 1.671876.45312 2.421876.75 1.21875 2.03125 1.21875 1.03125 0 1.78125-.890626.76562-.90625.76562-2.6875 0-1.828124-.73437-2.703124-.71875-.875-1.75-.875-1.03125 0-1.79687.90625-.75.90625-.75 2.609374zm8.57812-6.328124v-1.828125h1.57812v1.828125zm0 11.0625v-9.328125h1.57812v9.328125zm3.95312 0v-12.890625h1.57813v12.890625zm10.42188-3 1.64062.203124q-.39062 1.421876-1.4375 2.21875-1.04687.796876-2.67187.796876-2.04687 0-3.25-1.265626-1.20313-1.265624-1.20313-3.546874 0-2.34375 1.20313-3.640625 1.21875-1.3125 3.15625-1.3125 1.875 0 3.0625 1.28125 1.1875 1.265625 1.1875 3.578125 0 .140624-.01562.421874h-6.95313q.07813 1.546876.85937 2.359376.79688.8125 1.95313.8125.875 0 1.48437-.453126.625-.453124.98438-1.453124zm-5.20312-2.5625h5.21874q-.10937-1.171875-.59374-1.765625-.76563-.921875-1.96876-.921875-1.07812 0-1.82812.734375-.73438.734375-.82812 1.953125z" fill="#1a1a1a"/></svg>