<svg version="1.1" viewBox="0.0 0.0 754.0 478.0" fill="none" stroke="none" stroke-linecap="square" stroke-miterlimit="10" width="754" height="478" xmlns:xlink="http://www.w3.org/1999/xlink" xmlns="http://www.w3.org/2000/svg"><path fill="#ffffff" d="M0 0L754.0 0L754.0 478.0L0 478.0L0 0Z" fill-rule="nonzero"/><path stroke="#333333" stroke-width="1.0" stroke-linecap="butt" d="M111.5 366.5L730.5 366.5" fill-rule="nonzero"/><path stroke="#cccccc" stroke-width="1.0" stroke-linecap="butt" d="M111.5 267.5L730.5 267.5" fill-rule="nonzero"/><path stroke="#cccccc" stroke-width="1.0" stroke-linecap="butt" d="M111.5 169.5L730.5 169.5" fill-rule="nonzero"/><path stroke="#cccccc" stroke-width="1.0" stroke-linecap="butt" d="M111.5 71.5L730.5 71.5" fill-rule="nonzero"/><clipPath id="id_0"><path d="M111.9 71.333336L730.1 71.333336L730.1 366.1L111.9 366.1L111.9 71.333336Z" clip-rule="nonzero"/></clipPath><path stroke="#000000" stroke-width="2.0" stroke-linecap="butt" stroke-opacity="0.0" clip-path="url(#id_0)" d="M189.0 366.0L153.0 366.0L153.0 364.0C153.0 362.89542 153.89543 362.0 155.0 362.0L187.0 362.0C188.10457 362.0 189.0 362.89542 189.0 364.0Z" fill-rule="nonzero"/><path fill="#4285f4" clip-path="url(#id_0)" d="M189.0 366.0L153.0 366.0L153.0 364.0C153.0 362.89542 153.89543 362.0 155.0 362.0L187.0 362.0C188.10457 362.0 189.0 362.89542 189.0 364.0Z" fill-rule="nonzero"/><path stroke="#000000" stroke-width="2.0" stroke-linecap="butt" stroke-opacity="0.0" clip-path="url(#id_0)" d="M304.0 366.0L268.0 366.0L268.0 352.0C268.0 350.89542 268.89542 350.0 270.0 350.0L302.0 350.0C303.10458 350.0 304.0 350.89542 304.0 352.0Z" fill-rule="nonzero"/><path fill="#4285f4" clip-path="url(#id_0)" d="M304.0 366.0L268.0 366.0L268.0 352.0C268.0 350.89542 268.89542 350.0 270.0 350.0L302.0 350.0C303.10458 350.0 304.0 350.89542 304.0 352.0Z" fill-rule="nonzero"/><path stroke="#000000" stroke-width="2.0" stroke-linecap="butt" stroke-opacity="0.0" clip-path="url(#id_0)" d="M420.0 366.0L384.0 366.0L384.0 320.0C384.0 318.89542 384.89542 318.0 386.0 318.0L418.0 318.0C419.10458 318.0 420.0 318.89542 420.0 320.0Z" fill-rule="nonzero"/><path fill="#4285f4" clip-path="url(#id_0)" d="M420.0 366.0L384.0 366.0L384.0 320.0C384.0 318.89542 384.89542 318.0 386.0 318.0L418.0 318.0C419.10458 318.0 420.0 318.89542 420.0 320.0Z" fill-rule="nonzero"/><path stroke="#000000" stroke-width="2.0" stroke-linecap="butt" stroke-opacity="0.0" clip-path="url(#id_0)" d="M536.0 366.0L500.0 366.0L500.0 242.0C500.0 240.89543 500.89542 240.0 502.0 240.0L534.0 240.0C535.10455 240.0 536.0 240.89543 536.0 242.0Z" fill-rule="nonzero"/><path fill="#4285f4" clip-path="url(#id_0)" d="M536.0 366.0L500.0 366.0L500.0 242.0C500.0 240.89543 500.89542 240.0 502.0 240.0L534.0 240.0C535.10455 240.0 536.0 240.89543 536.0 242.0Z" fill-rule="nonzero"/><path stroke="#000000" stroke-width="2.0" stroke-linecap="butt" stroke-opacity="0.0" clip-path="url(#id_0)" d="M651.0 366.0L615.0 366.0L615.0 87.0C615.0 85.89543 615.89545 85.0 617.0 85.0L649.0 85.0C650.10455 85.0 651.0 85.89543 651.0 87.0Z" fill-rule="nonzero"/><path fill="#4285f4" clip-path="url(#id_0)" d="M651.0 366.0L615.0 366.0L615.0 87.0C615.0 85.89543 615.89545 85.0 617.0 85.0L649.0 85.0C650.10455 85.0 651.0 85.89543 651.0 87.0Z" fill-rule="nonzero"/><path stroke="#000000" stroke-width="2.0" stroke-linecap="butt" stroke-opacity="0.0" clip-path="url(#id_0)" d="M227.0 366.0L191.0 366.0L191.0 364.5C191.0 363.67157 191.67157 363.0 192.5 363.0L225.5 363.0C226.32843 363.0 227.0 363.67157 227.0 364.5Z" fill-rule="nonzero"/><path fill="#db4437" clip-path="url(#id_0)" d="M227.0 366.0L191.0 366.0L191.0 364.5C191.0 363.67157 191.67157 363.0 192.5 363.0L225.5 363.0C226.32843 363.0 227.0 363.67157 227.0 364.5Z" fill-rule="nonzero"/><path stroke="#000000" stroke-width="2.0" stroke-linecap="butt" stroke-opacity="0.0" clip-path="url(#id_0)" d="M342.0 366.0L306.0 366.0L306.0 355.0C306.0 353.89542 306.89542 353.0 308.0 353.0L340.0 353.0C341.10458 353.0 342.0 353.89542 342.0 355.0Z" fill-rule="nonzero"/><path fill="#db4437" clip-path="url(#id_0)" d="M342.0 366.0L306.0 366.0L306.0 355.0C306.0 353.89542 306.89542 353.0 308.0 353.0L340.0 353.0C341.10458 353.0 342.0 353.89542 342.0 355.0Z" fill-rule="nonzero"/><path stroke="#000000" stroke-width="2.0" stroke-linecap="butt" stroke-opacity="0.0" clip-path="url(#id_0)" d="M458.0 366.0L422.0 366.0L422.0 325.0C422.0 323.89542 422.89542 323.0 424.0 323.0L456.0 323.0C457.10458 323.0 458.0 323.89542 458.0 325.0Z" fill-rule="nonzero"/><path fill="#db4437" clip-path="url(#id_0)" d="M458.0 366.0L422.0 366.0L422.0 325.0C422.0 323.89542 422.89542 323.0 424.0 323.0L456.0 323.0C457.10458 323.0 458.0 323.89542 458.0 325.0Z" fill-rule="nonzero"/><path stroke="#000000" stroke-width="2.0" stroke-linecap="butt" stroke-opacity="0.0" clip-path="url(#id_0)" d="M574.0 366.0L538.0 366.0L538.0 254.0C538.0 252.89543 538.89545 252.0 540.0 252.0L572.0 252.0C573.10455 252.0 574.0 252.89543 574.0 254.0Z" fill-rule="nonzero"/><path fill="#db4437" clip-path="url(#id_0)" d="M574.0 366.0L538.0 366.0L538.0 254.0C538.0 252.89543 538.89545 252.0 540.0 252.0L572.0 252.0C573.10455 252.0 574.0 252.89543 574.0 254.0Z" fill-rule="nonzero"/><path stroke="#000000" stroke-width="2.0" stroke-linecap="butt" stroke-opacity="0.0" clip-path="url(#id_0)" d="M689.0 366.0L653.0 366.0L653.0 122.0C653.0 120.89543 653.89545 120.0 655.0 120.0L687.0 120.0C688.10455 120.0 689.0 120.89543 689.0 122.0Z" fill-rule="nonzero"/><path fill="#db4437" clip-path="url(#id_0)" d="M689.0 366.0L653.0 366.0L653.0 122.0C653.0 120.89543 653.89545 120.0 655.0 120.0L687.0 120.0C688.10455 120.0 689.0 120.89543 689.0 122.0Z" fill-rule="nonzero"/><path fill="#424242" d="M374.03125 443.5375L374.03125 449.1L372.15625 449.1L372.15625 434.88126L377.39062 434.88126Q379.73438 434.88126 381.04688 436.06876Q382.375 437.25626 382.375 439.225Q382.375 441.30313 381.07812 442.42813Q379.78125 443.5375 377.375 443.5375L374.03125 443.5375ZM374.03125 442.00626L377.39062 442.00626Q378.90625 442.00626 379.70312 441.30313Q380.5 440.58438 380.5 439.24063Q380.5 437.975 379.70312 437.225Q378.90625 436.45938 377.5 436.42813L374.03125 436.42813L374.03125 442.00626ZM389.25 449.30313Q387.10938 449.30313 385.75 447.89688Q384.40625 446.475 384.40625 444.11563L384.40625 443.77188Q384.40625 442.20938 385.0 440.975Q385.60938 439.74063 386.6875 439.0375Q387.76562 438.33438 389.03125 438.33438Q391.09375 438.33438 392.23438 439.69376Q393.375 441.05313 393.375 443.58438L393.375 444.33438L386.21875 444.33438Q386.25 445.89688 387.125 446.86563Q388.0 447.81876 389.34375 447.81876Q390.3125 447.81876 390.96875 447.42813Q391.64062 447.0375 392.14062 446.39688L393.23438 447.25626Q391.90625 449.30313 389.25 449.30313ZM389.03125 439.81876Q387.9375 439.81876 387.1875 440.61563Q386.45312 441.4125 386.28125 442.85L391.5625 442.85L391.5625 442.70938Q391.48438 441.33438 390.8125 440.58438Q390.15625 439.81876 389.03125 439.81876ZM400.96875 440.14688Q400.5625 440.08438 400.09375 440.08438Q398.3125 440.08438 397.67188 441.6L397.67188 449.1L395.875 449.1L395.875 438.5375L397.625 438.5375L397.65625 439.75626Q398.54688 438.33438 400.17188 438.33438Q400.70312 438.33438 400.96875 438.475L400.96875 440.14688ZM407.10938 447.81876Q408.07812 447.81876 408.79688 447.24063Q409.51562 446.64688 409.59375 445.77188L411.3125 445.77188Q411.25 446.67813 410.67188 447.50626Q410.10938 448.31876 409.14062 448.81876Q408.1875 449.30313 407.10938 449.30313Q404.95312 449.30313 403.67188 447.86563Q402.40625 446.4125 402.40625 443.9125L402.40625 443.61563Q402.40625 442.06876 402.96875 440.86563Q403.53125 439.6625 404.59375 439.00626Q405.65625 438.33438 407.09375 438.33438Q408.875 438.33438 410.04688 439.39688Q411.23438 440.45938 411.3125 442.1625L409.59375 442.1625Q409.51562 441.14688 408.8125 440.49063Q408.125 439.81876 407.09375 439.81876Q405.71875 439.81876 404.95312 440.81876Q404.20312 441.80313 404.20312 443.67813L404.20312 444.02188Q404.20312 445.85 404.95312 446.83438Q405.70312 447.81876 407.10938 447.81876ZM417.25 449.30313Q415.10938 449.30313 413.75 447.89688Q412.40625 446.475 412.40625 444.11563L412.40625 443.77188Q412.40625 442.20938 413.0 440.975Q413.60938 439.74063 414.6875 439.0375Q415.76562 438.33438 417.03125 438.33438Q419.09375 438.33438 420.23438 439.69376Q421.375 441.05313 421.375 443.58438L421.375 444.33438L414.21875 444.33438Q414.25 445.89688 415.125 446.86563Q416.0 447.81876 417.34375 447.81876Q418.3125 447.81876 418.96875 447.42813Q419.64062 447.0375 420.14062 446.39688L421.23438 447.25626Q419.90625 449.30313 417.25 449.30313ZM417.03125 439.81876Q415.9375 439.81876 415.1875 440.61563Q414.45312 441.4125 414.28125 442.85L419.5625 442.85L419.5625 442.70938Q419.48438 441.33438 418.8125 440.58438Q418.15625 439.81876 417.03125 439.81876ZM425.57812 438.5375L425.64062 439.86563Q426.84375 438.33438 428.79688 438.33438Q432.15625 438.33438 432.17188 442.11563L432.17188 449.1L430.375 449.1L430.375 442.1Q430.35938 440.95938 429.84375 440.4125Q429.34375 439.86563 428.25 439.86563Q427.375 439.86563 426.70312 440.33438Q426.04688 440.80313 425.67188 441.56876L425.67188 449.1L423.875 449.1L423.875 438.5375L425.57812 438.5375ZM437.3125 435.975L437.3125 438.5375L439.29688 438.5375L439.29688 439.92813L437.3125 439.92813L437.3125 446.475Q437.3125 447.11563 437.57812 447.44376Q437.84375 447.75626 438.48438 447.75626Q438.79688 447.75626 439.34375 447.63126L439.34375 449.1Q438.625 449.30313 437.95312 449.30313Q436.75 449.30313 436.125 448.56876Q435.51562 447.83438 435.51562 446.475L435.51562 439.92813L433.59375 439.92813L433.59375 438.5375L435.51562 438.5375L435.51562 435.975L437.3125 435.975ZM443.82812 449.1L442.03125 449.1L442.03125 438.5375L443.82812 438.5375L443.82812 449.1ZM441.875 435.725Q441.875 435.2875 442.14062 434.99063Q442.42188 434.67813 442.9375 434.67813Q443.46875 434.67813 443.73438 434.99063Q444.01562 435.2875 444.01562 435.725Q444.01562 436.1625 443.73438 436.45938Q443.46875 436.75626 442.9375 436.75626Q442.42188 436.75626 442.14062 436.45938Q441.875 436.1625 441.875 435.725ZM448.82812 449.1L447.03125 449.1L447.03125 434.1L448.82812 434.1L448.82812 449.1ZM456.25 449.30313Q454.10938 449.30313 452.75 447.89688Q451.40625 446.475 451.40625 444.11563L451.40625 443.77188Q451.40625 442.20938 452.0 440.975Q452.60938 439.74063 453.6875 439.0375Q454.76562 438.33438 456.03125 438.33438Q458.09375 438.33438 459.23438 439.69376Q460.375 441.05313 460.375 443.58438L460.375 444.33438L453.21875 444.33438Q453.25 445.89688 454.125 446.86563Q455.0 447.81876 456.34375 447.81876Q457.3125 447.81876 457.96875 447.42813Q458.64062 447.0375 459.14062 446.39688L460.23438 447.25626Q458.90625 449.30313 456.25 449.30313ZM456.03125 439.81876Q454.9375 439.81876 454.1875 440.61563Q453.45312 441.4125 453.28125 442.85L458.5625 442.85L458.5625 442.70938Q458.48438 441.33438 457.8125 440.58438Q457.15625 439.81876 456.03125 439.81876ZM469.01562 446.30313Q469.01562 445.56876 468.46875 445.1625Q467.92188 444.75626 466.54688 444.45938Q465.17188 444.1625 464.35938 443.75626Q463.5625 443.35 463.17188 442.7875Q462.79688 442.20938 462.79688 441.42813Q462.79688 440.13126 463.89062 439.24063Q464.98438 438.33438 466.70312 438.33438Q468.5 438.33438 469.60938 439.27188Q470.73438 440.19376 470.73438 441.63126L468.90625 441.63126Q468.90625 440.89688 468.28125 440.36563Q467.65625 439.81876 466.70312 439.81876Q465.70312 439.81876 465.14062 440.25626Q464.59375 440.67813 464.59375 441.38126Q464.59375 442.02188 465.10938 442.36563Q465.625 442.69376 466.98438 443.00626Q468.34375 443.30313 469.17188 443.725Q470.01562 444.13126 470.42188 444.725Q470.82812 445.31876 470.82812 446.1625Q470.82812 447.58438 469.6875 448.44376Q468.5625 449.30313 466.75 449.30313Q465.48438 449.30313 464.5 448.85Q463.53125 448.39688 462.96875 447.6Q462.42188 446.7875 462.42188 445.85L464.23438 445.85Q464.28125 446.75626 464.95312 447.2875Q465.64062 447.81876 466.75 447.81876Q467.78125 447.81876 468.39062 447.4125Q469.01562 446.99063 469.01562 446.30313Z" fill-rule="nonzero"/><path fill="#424242" d="M36.29063 294.20105L38.087505 295.93542L42.900005 295.93542L42.900005 297.81042L28.681255 297.81042L28.681255 295.93542L35.712505 295.93542L28.681255 289.62292L28.681255 287.3573L34.962505 292.95105L42.900005 286.9198L42.900005 289.1698L36.29063 294.20105ZM42.900005 284.81042L28.681255 284.81042L28.681255 280.1698Q28.681255 277.8573 29.63438 276.68542Q30.587505 275.51355 32.462505 275.51355Q33.462505 275.51355 34.22813 276.09167Q34.993755 276.65417 35.41563 277.62292Q35.743755 276.4823 36.650005 275.81042Q37.54063 275.13855 38.79063 275.13855Q40.712505 275.13855 41.806255 276.38855Q42.900005 277.62292 42.900005 279.88855L42.900005 284.81042ZM36.243755 282.93542L41.368755 282.93542L41.368755 279.84167Q41.368755 278.52917 40.69688 277.77917Q40.00938 277.02917 38.82188 277.02917Q36.243755 277.02917 36.243755 279.81042L36.243755 282.93542ZM34.743755 282.93542L34.743755 280.1073Q34.743755 278.87292 34.13438 278.13855Q33.50938 277.40417 32.462505 277.40417Q31.29063 277.40417 30.75938 278.09167Q30.22813 278.76355 30.22813 280.1698L30.22813 282.93542L34.743755 282.93542ZM29.775005 260.65417L32.337505 260.65417L32.337505 258.6698L33.72813 258.6698L33.72813 260.65417L40.275005 260.65417Q40.91563 260.65417 41.243755 260.38855Q41.556255 260.12292 41.556255 259.4823Q41.556255 259.1698 41.431255 258.62292L42.900005 258.62292Q43.10313 259.34167 43.10313 260.01355Q43.10313 261.21667 42.368755 261.84167Q41.63438 262.45105 40.275005 262.45105L33.72813 262.45105L33.72813 264.37292L32.337505 264.37292L32.337505 262.45105L29.775005 262.45105L29.775005 260.65417ZM33.94688 250.99792Q33.88438 251.40417 33.88438 251.87292Q33.88438 253.65417 35.400005 254.2948L42.900005 254.2948L42.900005 256.09167L32.337505 256.09167L32.337505 254.34167L33.556255 254.31042Q32.13438 253.4198 32.13438 251.7948Q32.13438 251.26355 32.275005 250.99792L33.94688 250.99792ZM42.900005 242.57605Q42.587505 242.7323 41.79063 242.82605Q43.10313 244.09167 43.10313 245.84167Q43.10313 247.40417 42.212505 248.40417Q41.32188 249.40417 39.962505 249.40417Q38.32188 249.40417 37.41563 248.15417Q36.493755 246.88855 36.493755 244.62292L36.493755 242.8573L35.66563 242.8573Q34.712505 242.8573 34.150005 243.43542Q33.587505 243.99792 33.587505 245.09167Q33.587505 246.06042 34.087505 246.71667Q34.57188 247.37292 35.25938 247.37292L35.25938 249.18542Q34.47813 249.18542 33.743755 248.62292Q32.993755 248.06042 32.57188 247.1073Q32.13438 246.13855 32.13438 244.9823Q32.13438 243.15417 33.056255 242.12292Q33.962505 241.09167 35.57188 241.0448L40.431255 241.0448Q41.88438 241.0448 42.743755 240.68542L42.900005 240.68542L42.900005 242.57605ZM41.525005 245.57605Q41.525005 244.71667 41.087505 243.96667Q40.650005 243.20105 39.94688 242.8573L37.775005 242.8573L37.775005 244.27917Q37.775005 247.59167 39.712505 247.59167Q40.57188 247.59167 41.056255 247.02917Q41.525005 246.46667 41.525005 245.57605ZM32.337505 236.38855L33.66563 236.32605Q32.13438 235.12292 32.13438 233.1698Q32.13438 229.81042 35.91563 229.7948L42.900005 229.7948L42.900005 231.59167L35.900005 231.59167Q34.75938 231.6073 34.212505 232.12292Q33.66563 232.62292 33.66563 233.71667Q33.66563 234.59167 34.13438 235.26355Q34.60313 235.9198 35.368755 236.2948L42.900005 236.2948L42.900005 238.09167L32.337505 238.09167L32.337505 236.38855ZM40.10313 220.95105Q39.368755 220.95105 38.962505 221.49792Q38.556255 222.0448 38.25938 223.4198Q37.962505 224.7948 37.556255 225.6073Q37.150005 226.40417 36.587505 226.7948Q36.00938 227.1698 35.22813 227.1698Q33.931255 227.1698 33.04063 226.07605Q32.13438 224.9823 32.13438 223.26355Q32.13438 221.46667 33.07188 220.3573Q33.993755 219.2323 35.431255 219.2323L35.431255 221.06042Q34.69688 221.06042 34.16563 221.68542Q33.618755 222.31042 33.618755 223.26355Q33.618755 224.26355 34.056255 224.82605Q34.47813 225.37292 35.181255 225.37292Q35.82188 225.37292 36.16563 224.8573Q36.493755 224.34167 36.806255 222.9823Q37.10313 221.62292 37.525005 220.7948Q37.931255 219.95105 38.525005 219.5448Q39.118755 219.13855 39.962505 219.13855Q41.38438 219.13855 42.243755 220.27917Q43.10313 221.40417 43.10313 223.21667Q43.10313 224.4823 42.650005 225.46667Q42.19688 226.43542 41.400005 226.99792Q40.587505 227.5448 39.650005 227.5448L39.650005 225.7323Q40.556255 225.68542 41.087505 225.01355Q41.618755 224.32605 41.618755 223.21667Q41.618755 222.18542 41.212505 221.57605Q40.79063 220.95105 40.10313 220.95105ZM42.900005 216.21667L33.72813 216.21667L33.72813 217.87292L32.337505 217.87292L32.337505 216.21667L31.243755 216.21667Q29.556255 216.21667 28.63438 215.31042Q27.69688 214.38855 27.69688 212.7323Q27.69688 212.1073 27.85313 211.49792L29.32188 211.59167Q29.243755 212.0448 29.243755 212.56042Q29.243755 213.45105 29.75938 213.93542Q30.25938 214.40417 31.212505 214.40417L32.337505 214.40417L32.337505 212.15417L33.72813 212.15417L33.72813 214.40417L42.900005 214.40417L42.900005 216.21667ZM43.10313 205.71667Q43.10313 207.8573 41.69688 209.21667Q40.275005 210.56042 37.91563 210.56042L37.57188 210.56042Q36.00938 210.56042 34.775005 209.96667Q33.54063 209.3573 32.837505 208.27917Q32.13438 207.20105 32.13438 205.93542Q32.13438 203.87292 33.493755 202.7323Q34.85313 201.59167 37.38438 201.59167L38.13438 201.59167L38.13438 208.74792Q39.69688 208.71667 40.66563 207.84167Q41.618755 206.96667 41.618755 205.62292Q41.618755 204.65417 41.22813 203.99792Q40.837505 203.32605 40.19688 202.82605L41.056255 201.7323Q43.10313 203.06042 43.10313 205.71667ZM33.618755 205.93542Q33.618755 207.02917 34.41563 207.77917Q35.212505 208.51355 36.650005 208.68542L36.650005 203.40417L36.50938 203.40417Q35.13438 203.4823 34.38438 204.15417Q33.618755 204.81042 33.618755 205.93542ZM33.94688 193.99792Q33.88438 194.40417 33.88438 194.87292Q33.88438 196.65417 35.400005 197.2948L42.900005 197.2948L42.900005 199.09167L32.337505 199.09167L32.337505 197.34167L33.556255 197.31042Q32.13438 196.4198 32.13438 194.7948Q32.13438 194.26355 32.275005 193.99792L33.94688 193.99792ZM33.94688 186.99792Q33.88438 187.40417 33.88438 187.87292Q33.88438 189.65417 35.400005 190.2948L42.900005 190.2948L42.900005 192.09167L32.337505 192.09167L32.337505 190.34167L33.556255 190.31042Q32.13438 189.4198 32.13438 187.7948Q32.13438 187.26355 32.275005 186.99792L33.94688 186.99792ZM43.10313 180.71667Q43.10313 182.8573 41.69688 184.21667Q40.275005 185.56042 37.91563 185.56042L37.57188 185.56042Q36.00938 185.56042 34.775005 184.96667Q33.54063 184.3573 32.837505 183.27917Q32.13438 182.20105 32.13438 180.93542Q32.13438 178.87292 33.493755 177.7323Q34.85313 176.59167 37.38438 176.59167L38.13438 176.59167L38.13438 183.74792Q39.69688 183.71667 40.66563 182.84167Q41.618755 181.96667 41.618755 180.62292Q41.618755 179.65417 41.22813 178.99792Q40.837505 178.32605 40.19688 177.82605L41.056255 176.7323Q43.10313 178.06042 43.10313 180.71667ZM33.618755 180.93542Q33.618755 182.02917 34.41563 182.77917Q35.212505 183.51355 36.650005 183.68542L36.650005 178.40417L36.50938 178.40417Q35.13438 178.4823 34.38438 179.15417Q33.618755 179.81042 33.618755 180.93542ZM37.525005 174.5448Q35.10313 174.5448 33.618755 173.38855Q32.13438 172.2323 32.13438 170.37292Q32.13438 168.51355 33.400005 167.43542L27.900005 167.43542L27.900005 165.62292L42.900005 165.62292L42.900005 167.27917L41.75938 167.37292Q43.10313 168.45105 43.10313 170.38855Q43.10313 172.21667 41.60313 173.38855Q40.087505 174.5448 37.66563 174.5448L37.525005 174.5448ZM37.72813 172.7323Q39.525005 172.7323 40.54063 171.99792Q41.556255 171.24792 41.556255 169.93542Q41.556255 168.21667 40.025005 167.43542L35.16563 167.43542Q33.66563 168.2323 33.66563 169.9198Q33.66563 171.24792 34.69688 171.99792Q35.72813 172.7323 37.72813 172.7323Z" fill-rule="nonzero"/><path fill="#757575" d="M104.9625 366.95938Q104.9625 368.86563 104.30625 369.80313Q103.66563 370.725 102.275 370.725Q100.91563 370.725 100.25938 369.81876Q99.60313 368.9125 99.57188 367.1L99.57188 365.6625Q99.57188 363.77188 100.2125 362.86563Q100.86875 361.94376 102.25938 361.94376Q103.63438 361.94376 104.29063 362.83438Q104.94688 363.70938 104.9625 365.55313L104.9625 366.95938ZM103.86875 365.475Q103.86875 364.1 103.47813 363.475Q103.10313 362.83438 102.25938 362.83438Q101.43125 362.83438 101.04063 363.475Q100.66563 364.1 100.66563 365.39688L100.66563 367.13126Q100.66563 368.50626 101.05625 369.17813Q101.4625 369.83438 102.275 369.83438Q103.07188 369.83438 103.4625 369.20938Q103.85313 368.58438 103.86875 367.25626L103.86875 365.475Z" fill-rule="nonzero"/><path fill="#757575" d="M84.19688 272.34445L78.60313 272.34445L78.60313 271.5632L81.55625 268.28195Q82.2125 267.53195 82.4625 267.07883Q82.7125 266.61008 82.7125 266.11008Q82.7125 265.4382 82.30625 265.01633Q81.91563 264.57883 81.22813 264.57883Q80.43125 264.57883 79.97813 265.04758Q79.525 265.5007 79.525 266.32883L78.44688 266.32883Q78.44688 265.14133 79.19688 264.42258Q79.9625 263.6882 81.22813 263.6882Q82.43125 263.6882 83.11875 264.3132Q83.80625 264.9382 83.80625 265.98508Q83.80625 267.23508 82.19688 268.98508L79.91563 271.45383L84.19688 271.45383L84.19688 272.34445ZM90.9625 268.70383Q90.9625 270.61008 90.30625 271.54758Q89.66563 272.46945 88.275 272.46945Q86.91563 272.46945 86.25938 271.5632Q85.60313 270.65695 85.57188 268.84445L85.57188 267.40695Q85.57188 265.51633 86.2125 264.61008Q86.86875 263.6882 88.25938 263.6882Q89.63438 263.6882 90.29063 264.57883Q90.94688 265.45383 90.9625 267.29758L90.9625 268.70383ZM89.86875 267.21945Q89.86875 265.84445 89.47813 265.21945Q89.10313 264.57883 88.25938 264.57883Q87.43125 264.57883 87.04063 265.21945Q86.66563 265.84445 86.66563 267.14133L86.66563 268.8757Q86.66563 270.2507 87.05625 270.92258Q87.4625 271.57883 88.275 271.57883Q89.07188 271.57883 89.4625 270.95383Q89.85313 270.32883 89.86875 269.0007L89.86875 267.21945ZM97.9625 268.70383Q97.9625 270.61008 97.30625 271.54758Q96.66563 272.46945 95.275 272.46945Q93.91563 272.46945 93.25938 271.5632Q92.60313 270.65695 92.57188 268.84445L92.57188 267.40695Q92.57188 265.51633 93.2125 264.61008Q93.86875 263.6882 95.25938 263.6882Q96.63438 263.6882 97.29063 264.57883Q97.94688 265.45383 97.9625 267.29758L97.9625 268.70383ZM96.86875 267.21945Q96.86875 265.84445 96.47813 265.21945Q96.10313 264.57883 95.25938 264.57883Q94.43125 264.57883 94.04063 265.21945Q93.66563 265.84445 93.66563 267.14133L93.66563 268.8757Q93.66563 270.2507 94.05625 270.92258Q94.4625 271.57883 95.275 271.57883Q96.07188 271.57883 96.4625 270.95383Q96.85313 270.32883 96.86875 269.0007L96.86875 267.21945ZM104.9625 268.70383Q104.9625 270.61008 104.30625 271.54758Q103.66563 272.46945 102.275 272.46945Q100.91563 272.46945 100.25938 271.5632Q99.60313 270.65695 99.57188 268.84445L99.57188 267.40695Q99.57188 265.51633 100.2125 264.61008Q100.86875 263.6882 102.25938 263.6882Q103.63438 263.6882 104.29063 264.57883Q104.94688 265.45383 104.9625 267.29758L104.9625 268.70383ZM103.86875 267.21945Q103.86875 265.84445 103.47813 265.21945Q103.10313 264.57883 102.25938 264.57883Q101.43125 264.57883 101.04063 265.21945Q100.66563 265.84445 100.66563 267.14133L100.66563 268.8757Q100.66563 270.2507 101.05625 270.92258Q101.4625 271.57883 102.275 271.57883Q103.07188 271.57883 103.4625 270.95383Q103.85313 270.32883 103.86875 269.0007L103.86875 267.21945Z" fill-rule="nonzero"/><path fill="#757575" d="M83.18125 171.2295L84.36875 171.2295L84.36875 172.1045L83.18125 172.1045L83.18125 174.08888L82.10313 174.08888L82.10313 172.1045L78.2125 172.1045L78.2125 171.46388L82.025 165.55763L83.18125 165.55763L83.18125 171.2295ZM79.44688 171.2295L82.10313 171.2295L82.10313 167.042L81.9625 167.27638L79.44688 171.2295ZM90.9625 170.44826Q90.9625 172.3545 90.30625 173.292Q89.66563 174.21388 88.275 174.21388Q86.91563 174.21388 86.25938 173.30763Q85.60313 172.40138 85.57188 170.58888L85.57188 169.15138Q85.57188 167.26076 86.2125 166.3545Q86.86875 165.43263 88.25938 165.43263Q89.63438 165.43263 90.29063 166.32326Q90.94688 167.19826 90.9625 169.042L90.9625 170.44826ZM89.86875 168.96388Q89.86875 167.58888 89.47813 166.96388Q89.10313 166.32326 88.25938 166.32326Q87.43125 166.32326 87.04063 166.96388Q86.66563 167.58888 86.66563 168.88576L86.66563 170.62013Q86.66563 171.99513 87.05625 172.667Q87.4625 173.32326 88.275 173.32326Q89.07188 173.32326 89.4625 172.69826Q89.85313 172.07326 89.86875 170.74513L89.86875 168.96388ZM97.9625 170.44826Q97.9625 172.3545 97.30625 173.292Q96.66563 174.21388 95.275 174.21388Q93.91563 174.21388 93.25938 173.30763Q92.60313 172.40138 92.57188 170.58888L92.57188 169.15138Q92.57188 167.26076 93.2125 166.3545Q93.86875 165.43263 95.25938 165.43263Q96.63438 165.43263 97.29063 166.32326Q97.94688 167.19826 97.9625 169.042L97.9625 170.44826ZM96.86875 168.96388Q96.86875 167.58888 96.47813 166.96388Q96.10313 166.32326 95.25938 166.32326Q94.43125 166.32326 94.04063 166.96388Q93.66563 167.58888 93.66563 168.88576L93.66563 170.62013Q93.66563 171.99513 94.05625 172.667Q94.4625 173.32326 95.275 173.32326Q96.07188 173.32326 96.4625 172.69826Q96.85313 172.07326 96.86875 170.74513L96.86875 168.96388ZM104.9625 170.44826Q104.9625 172.3545 104.30625 173.292Q103.66563 174.21388 102.275 174.21388Q100.91563 174.21388 100.25938 173.30763Q99.60313 172.40138 99.57188 170.58888L99.57188 169.15138Q99.57188 167.26076 100.2125 166.3545Q100.86875 165.43263 102.25938 165.43263Q103.63438 165.43263 104.29063 166.32326Q104.94688 167.19826 104.9625 169.042L104.9625 170.44826ZM103.86875 168.96388Q103.86875 167.58888 103.47813 166.96388Q103.10313 166.32326 102.25938 166.32326Q101.43125 166.32326 101.04063 166.96388Q100.66563 167.58888 100.66563 168.88576L100.66563 170.62013Q100.66563 171.99513 101.05625 172.667Q101.4625 173.32326 102.275 173.32326Q103.07188 173.32326 103.4625 172.69826Q103.85313 172.07326 103.86875 170.74513L103.86875 168.96388Z" fill-rule="nonzero"/><path fill="#757575" d="M82.86875 67.302086L82.86875 68.208336L82.66563 68.208336Q81.4 68.239586 80.65 68.97396Q79.9 69.69271 79.775 71.00521Q80.4625 70.239586 81.61875 70.239586Q82.72813 70.239586 83.4 71.020836Q84.07188 71.802086 84.07188 73.052086Q84.07188 74.364586 83.35313 75.16146Q82.63438 75.958336 81.41563 75.958336Q80.19688 75.958336 79.43125 75.020836Q78.68125 74.06771 78.68125 72.583336L78.68125 72.177086Q78.68125 69.81771 79.68125 68.56771Q80.68125 67.31771 82.66563 67.302086L82.86875 67.302086ZM81.44688 71.145836Q80.88438 71.145836 80.41563 71.47396Q79.94688 71.802086 79.75938 72.31771L79.75938 72.708336Q79.75938 73.770836 80.22813 74.41146Q80.7125 75.052086 81.41563 75.052086Q82.15 75.052086 82.57188 74.520836Q82.99375 73.97396 82.99375 73.09896Q82.99375 72.22396 82.57188 71.69271Q82.15 71.145836 81.44688 71.145836ZM90.9625 72.19271Q90.9625 74.09896 90.30625 75.03646Q89.66563 75.958336 88.275 75.958336Q86.91563 75.958336 86.25938 75.052086Q85.60313 74.145836 85.57188 72.333336L85.57188 70.895836Q85.57188 69.00521 86.2125 68.09896Q86.86875 67.177086 88.25938 67.177086Q89.63438 67.177086 90.29063 68.06771Q90.94688 68.94271 90.9625 70.78646L90.9625 72.19271ZM89.86875 70.708336Q89.86875 69.333336 89.47813 68.708336Q89.10313 68.06771 88.25938 68.06771Q87.43125 68.06771 87.04063 68.708336Q86.66563 69.333336 86.66563 70.63021L86.66563 72.364586Q86.66563 73.739586 87.05625 74.41146Q87.4625 75.06771 88.275 75.06771Q89.07188 75.06771 89.4625 74.44271Q89.85313 73.81771 89.86875 72.489586L89.86875 70.708336ZM97.9625 72.19271Q97.9625 74.09896 97.30625 75.03646Q96.66563 75.958336 95.275 75.958336Q93.91563 75.958336 93.25938 75.052086Q92.60313 74.145836 92.57188 72.333336L92.57188 70.895836Q92.57188 69.00521 93.2125 68.09896Q93.86875 67.177086 95.25938 67.177086Q96.63438 67.177086 97.29063 68.06771Q97.94688 68.94271 97.9625 70.78646L97.9625 72.19271ZM96.86875 70.708336Q96.86875 69.333336 96.47813 68.708336Q96.10313 68.06771 95.25938 68.06771Q94.43125 68.06771 94.04063 68.708336Q93.66563 69.333336 93.66563 70.63021L93.66563 72.364586Q93.66563 73.739586 94.05625 74.41146Q94.4625 75.06771 95.275 75.06771Q96.07188 75.06771 96.4625 74.44271Q96.85313 73.81771 96.86875 72.489586L96.86875 70.708336ZM104.9625 72.19271Q104.9625 74.09896 104.30625 75.03646Q103.66563 75.958336 102.275 75.958336Q100.91563 75.958336 100.25938 75.052086Q99.60313 74.145836 99.57188 72.333336L99.57188 70.895836Q99.57188 69.00521 100.2125 68.09896Q100.86875 67.177086 102.25938 67.177086Q103.63438 67.177086 104.29063 68.06771Q104.94688 68.94271 104.9625 70.78646L104.9625 72.19271ZM103.86875 70.708336Q103.86875 69.333336 103.47813 68.708336Q103.10313 68.06771 102.25938 68.06771Q101.43125 68.06771 101.04063 68.708336Q100.66563 69.333336 100.66563 70.63021L100.66563 72.364586Q100.66563 73.739586 101.05625 74.41146Q101.4625 75.06771 102.275 75.06771Q103.07188 75.06771 103.4625 74.44271Q103.85313 73.81771 103.86875 72.489586L103.86875 70.708336Z" fill-rule="nonzero"/><path fill="#757575" d="M183.69408 389.92813Q183.69408 392.35 182.5847 393.83438Q181.49095 395.30313 179.60033 395.30313Q177.67845 395.30313 176.56908 394.06876L176.56908 399.1625L174.7722 399.1625L174.7722 384.5375L176.41283 384.5375L176.50658 385.70938Q177.60033 384.33438 179.56908 384.33438Q181.47533 384.33438 182.5847 385.77188Q183.69408 387.20938 183.69408 389.77188L183.69408 389.92813ZM181.88158 389.725Q181.88158 387.94376 181.11595 386.9125Q180.36595 385.86563 179.03783 385.86563Q177.3972 385.86563 176.56908 387.31876L176.56908 392.38126Q177.38158 393.81876 179.05345 393.81876Q180.35033 393.81876 181.11595 392.7875Q181.88158 391.75626 181.88158 389.725ZM191.5222 395.1L189.69408 395.1L189.69408 383.05313L186.05345 384.39688L186.05345 382.75626L191.24095 380.81876L191.5222 380.81876L191.5222 395.1ZM205.49095 389.0375Q205.49095 392.20938 204.41283 393.75626Q203.3347 395.30313 201.0222 395.30313Q198.74095 395.30313 197.6472 393.7875Q196.55345 392.27188 196.5222 389.27188L196.5222 386.86563Q196.5222 383.725 197.60033 382.20938Q198.69408 380.67813 201.00658 380.67813Q203.30345 380.67813 204.38158 382.1625Q205.4597 383.63126 205.49095 386.69376L205.49095 389.0375ZM203.69408 386.56876Q203.69408 384.27188 203.03783 383.225Q202.3972 382.1625 201.00658 382.1625Q199.61595 382.1625 198.97533 383.20938Q198.35033 384.25626 198.3347 386.42813L198.3347 389.31876Q198.3347 391.61563 198.99095 392.725Q199.66283 393.81876 201.0222 393.81876Q202.36595 393.81876 203.00658 392.7875Q203.66283 391.75626 203.69408 389.52188L203.69408 386.56876Z" fill-rule="nonzero"/><path fill="#757575" d="M299.24548 389.92813Q299.24548 392.35 298.1361 393.83438Q297.04236 395.30313 295.15173 395.30313Q293.22986 395.30313 292.12048 394.06876L292.12048 399.1625L290.3236 399.1625L290.3236 384.5375L291.96423 384.5375L292.05798 385.70938Q293.15173 384.33438 295.12048 384.33438Q297.02673 384.33438 298.1361 385.77188Q299.24548 387.20938 299.24548 389.77188L299.24548 389.92813ZM297.43298 389.725Q297.43298 387.94376 296.66736 386.9125Q295.91736 385.86563 294.58923 385.86563Q292.9486 385.86563 292.12048 387.31876L292.12048 392.38126Q292.93298 393.81876 294.60486 393.81876Q295.90173 393.81876 296.66736 392.7875Q297.43298 391.75626 297.43298 389.725ZM310.4486 395.1L301.1361 395.1L301.1361 393.80313L306.05798 388.33438Q307.15173 387.08438 307.55798 386.31876Q307.97986 385.5375 307.97986 384.70938Q307.97986 383.6 307.30798 382.88126Q306.6361 382.1625 305.5111 382.1625Q304.15173 382.1625 303.40173 382.94376Q302.66736 383.70938 302.66736 385.06876L300.85486 385.06876Q300.85486 383.1 302.12048 381.89688Q303.3861 380.67813 305.5111 380.67813Q307.49548 380.67813 308.6361 381.725Q309.79236 382.77188 309.79236 384.49063Q309.79236 386.6 307.12048 389.49063L303.30798 393.63126L310.4486 393.63126L310.4486 395.1ZM312.96423 387.975L313.68298 380.88126L320.96423 380.88126L320.96423 382.55313L315.21423 382.55313L314.79236 386.42813Q315.83923 385.81876 317.16736 385.81876Q319.10486 385.81876 320.24548 387.1Q321.3861 388.38126 321.3861 390.56876Q321.3861 392.77188 320.1986 394.0375Q319.0111 395.30313 316.8861 395.30313Q314.99548 395.30313 313.80798 394.25626Q312.62048 393.20938 312.4486 391.36563L314.16736 391.36563Q314.3236 392.58438 315.02673 393.20938Q315.72986 393.81876 316.8861 393.81876Q318.15173 393.81876 318.87048 392.95938Q319.58923 392.1 319.58923 390.58438Q319.58923 389.1625 318.80798 388.30313Q318.02673 387.42813 316.74548 387.42813Q315.55798 387.42813 314.8861 387.94376L314.40173 388.33438L312.96423 387.975Z" fill-rule="nonzero"/><path fill="#757575" d="M414.79688 389.92813Q414.79688 392.35 413.6875 393.83438Q412.59375 395.30313 410.70312 395.30313Q408.78125 395.30313 407.67188 394.06876L407.67188 399.1625L405.875 399.1625L405.875 384.5375L407.51562 384.5375L407.60938 385.70938Q408.70312 384.33438 410.67188 384.33438Q412.57812 384.33438 413.6875 385.77188Q414.79688 387.20938 414.79688 389.77188L414.79688 389.92813ZM412.98438 389.725Q412.98438 387.94376 412.21875 386.9125Q411.46875 385.86563 410.14062 385.86563Q408.5 385.86563 407.67188 387.31876L407.67188 392.38126Q408.48438 393.81876 410.15625 393.81876Q411.45312 393.81876 412.21875 392.7875Q412.98438 391.75626 412.98438 389.725ZM417.51562 387.975L418.23438 380.88126L425.51562 380.88126L425.51562 382.55313L419.76562 382.55313L419.34375 386.42813Q420.39062 385.81876 421.71875 385.81876Q423.65625 385.81876 424.79688 387.1Q425.9375 388.38126 425.9375 390.56876Q425.9375 392.77188 424.75 394.0375Q423.5625 395.30313 421.4375 395.30313Q419.54688 395.30313 418.35938 394.25626Q417.17188 393.20938 417.0 391.36563L418.71875 391.36563Q418.875 392.58438 419.57812 393.20938Q420.28125 393.81876 421.4375 393.81876Q422.70312 393.81876 423.42188 392.95938Q424.14062 392.1 424.14062 390.58438Q424.14062 389.1625 423.35938 388.30313Q422.57812 387.42813 421.29688 387.42813Q420.10938 387.42813 419.4375 387.94376L418.95312 388.33438L417.51562 387.975ZM436.59375 389.0375Q436.59375 392.20938 435.51562 393.75626Q434.4375 395.30313 432.125 395.30313Q429.84375 395.30313 428.75 393.7875Q427.65625 392.27188 427.625 389.27188L427.625 386.86563Q427.625 383.725 428.70312 382.20938Q429.79688 380.67813 432.10938 380.67813Q434.40625 380.67813 435.48438 382.1625Q436.5625 383.63126 436.59375 386.69376L436.59375 389.0375ZM434.79688 386.56876Q434.79688 384.27188 434.14062 383.225Q433.5 382.1625 432.10938 382.1625Q430.71875 382.1625 430.07812 383.20938Q429.45312 384.25626 429.4375 386.42813L429.4375 389.31876Q429.4375 391.61563 430.09375 392.725Q430.76562 393.81876 432.125 393.81876Q433.46875 393.81876 434.10938 392.7875Q434.76562 391.75626 434.79688 389.52188L434.79688 386.56876Z" fill-rule="nonzero"/><path fill="#757575" d="M530.34827 389.92813Q530.34827 392.35 529.2389 393.83438Q528.14514 395.30313 526.2545 395.30313Q524.33264 395.30313 523.22327 394.06876L523.22327 399.1625L521.4264 399.1625L521.4264 384.5375L523.067 384.5375L523.16077 385.70938Q524.2545 384.33438 526.22327 384.33438Q528.1295 384.33438 529.2389 385.77188Q530.34827 387.20938 530.34827 389.77188L530.34827 389.92813ZM528.53577 389.725Q528.53577 387.94376 527.77014 386.9125Q527.02014 385.86563 525.692 385.86563Q524.0514 385.86563 523.22327 387.31876L523.22327 392.38126Q524.03577 393.81876 525.70764 393.81876Q527.0045 393.81876 527.77014 392.7875Q528.53577 391.75626 528.53577 389.725ZM541.41077 381.89688L535.52014 395.1L533.6295 395.1L539.5045 382.36563L531.8014 382.36563L531.8014 380.88126L541.41077 380.88126L541.41077 381.89688ZM544.067 387.975L544.78577 380.88126L552.067 380.88126L552.067 382.55313L546.317 382.55313L545.89514 386.42813Q546.942 385.81876 548.27014 385.81876Q550.20764 385.81876 551.34827 387.1Q552.4889 388.38126 552.4889 390.56876Q552.4889 392.77188 551.3014 394.0375Q550.1139 395.30313 547.9889 395.30313Q546.09827 395.30313 544.91077 394.25626Q543.72327 393.20938 543.5514 391.36563L545.27014 391.36563Q545.4264 392.58438 546.1295 393.20938Q546.83264 393.81876 547.9889 393.81876Q549.2545 393.81876 549.97327 392.95938Q550.692 392.1 550.692 390.58438Q550.692 389.1625 549.91077 388.30313Q549.1295 387.42813 547.84827 387.42813Q546.66077 387.42813 545.9889 387.94376L545.5045 388.33438L544.067 387.975Z" fill-rule="nonzero"/><path fill="#757575" d="M645.89966 389.92813Q645.89966 392.35 644.7903 393.83438Q643.69653 395.30313 641.8059 395.30313Q639.88403 395.30313 638.77466 394.06876L638.77466 399.1625L636.9778 399.1625L636.9778 384.5375L638.6184 384.5375L638.71216 385.70938Q639.8059 384.33438 641.77466 384.33438Q643.6809 384.33438 644.7903 385.77188Q645.89966 387.20938 645.89966 389.77188L645.89966 389.92813ZM644.08716 389.725Q644.08716 387.94376 643.32153 386.9125Q642.57153 385.86563 641.2434 385.86563Q639.6028 385.86563 638.77466 387.31876L638.77466 392.38126Q639.58716 393.81876 641.25903 393.81876Q642.5559 393.81876 643.32153 392.7875Q644.08716 391.75626 644.08716 389.725ZM654.71216 388.85Q654.14966 389.52188 653.3528 389.94376Q652.57153 390.35 651.63403 390.35Q650.39966 390.35 649.4778 389.74063Q648.57153 389.13126 648.07153 388.0375Q647.58716 386.92813 647.58716 385.6Q647.58716 384.17813 648.1184 383.0375Q648.6653 381.89688 649.64966 381.2875Q650.64966 380.67813 651.9778 380.67813Q654.08716 380.67813 655.3059 382.25626Q656.52466 383.83438 656.52466 386.56876L656.52466 387.08438Q656.52466 391.24063 654.88403 393.14688Q653.2434 395.05313 649.9309 395.11563L649.58716 395.11563L649.58716 393.58438L649.96216 393.58438Q652.19653 393.55313 653.39966 392.42813Q654.6028 391.2875 654.71216 388.85ZM651.9309 388.85Q652.83716 388.85 653.6028 388.30313Q654.3684 387.74063 654.71216 386.9125L654.71216 386.19376Q654.71216 384.4125 653.94653 383.30313Q653.1809 382.19376 651.9934 382.19376Q650.8059 382.19376 650.07153 383.11563Q649.3528 384.02188 649.3528 385.50626Q649.3528 386.95938 650.0559 387.9125Q650.75903 388.85 651.9309 388.85ZM667.69653 389.0375Q667.69653 392.20938 666.6184 393.75626Q665.5403 395.30313 663.2278 395.30313Q660.94653 395.30313 659.8528 393.7875Q658.75903 392.27188 658.7278 389.27188L658.7278 386.86563Q658.7278 383.725 659.8059 382.20938Q660.89966 380.67813 663.21216 380.67813Q665.50903 380.67813 666.58716 382.1625Q667.6653 383.63126 667.69653 386.69376L667.69653 389.0375ZM665.89966 386.56876Q665.89966 384.27188 665.2434 383.225Q664.6028 382.1625 663.21216 382.1625Q661.82153 382.1625 661.1809 383.20938Q660.5559 384.25626 660.5403 386.42813L660.5403 389.31876Q660.5403 391.61563 661.19653 392.725Q661.8684 393.81876 663.2278 393.81876Q664.57153 393.81876 665.21216 392.7875Q665.8684 391.75626 665.89966 389.52188L665.89966 386.56876Z" fill-rule="nonzero"/><path fill="#4285f4" d="M283.0 30.9C283.0 30.347715 283.44772 29.9 284.0 29.9L294.0 29.9C294.55228 29.9 295.0 30.347715 295.0 30.9L295.0 40.9C295.0 41.452286 294.55228 41.9 294.0 41.9L284.0 41.9C283.44772 41.9 283.0 41.452286 283.0 40.9Z" fill-rule="nonzero"/><path fill="#757575" d="M303.92188 37.525Q303.92188 35.103127 305.07812 33.61875Q306.23438 32.134377 308.09375 32.134377Q309.95312 32.134377 311.03125 33.4L311.03125 27.900002L312.84375 27.900002L312.84375 42.9L311.1875 42.9L311.09375 41.759377Q310.01562 43.103127 308.07812 43.103127Q306.25 43.103127 305.07812 41.603127Q303.92188 40.0875 303.92188 37.665627L303.92188 37.525ZM305.73438 37.728127Q305.73438 39.525 306.46875 40.540627Q307.21875 41.55625 308.53125 41.55625Q310.25 41.55625 311.03125 40.025L311.03125 35.165627Q310.23438 33.665627 308.54688 33.665627Q307.21875 33.665627 306.46875 34.696877Q305.73438 35.728127 305.73438 37.728127ZM319.75 43.103127Q317.60938 43.103127 316.25 41.696877Q314.90625 40.275 314.90625 37.915627L314.90625 37.571877Q314.90625 36.009377 315.5 34.775Q316.10938 33.540627 317.1875 32.8375Q318.26562 32.134377 319.53125 32.134377Q321.59375 32.134377 322.73438 33.49375Q323.875 34.853127 323.875 37.384377L323.875 38.134377L316.71875 38.134377Q316.75 39.696877 317.625 40.665627Q318.5 41.61875 319.84375 41.61875Q320.8125 41.61875 321.46875 41.228127Q322.14062 40.8375 322.64062 40.196877L323.73438 41.05625Q322.40625 43.103127 319.75 43.103127ZM319.53125 33.61875Q318.4375 33.61875 317.6875 34.415627Q316.95312 35.2125 316.78125 36.65L322.0625 36.65L322.0625 36.509377Q321.98438 35.134377 321.3125 34.384377Q320.65625 33.61875 319.53125 33.61875ZM332.51562 40.103127Q332.51562 39.36875 331.96875 38.9625Q331.42188 38.55625 330.04688 38.259377Q328.67188 37.9625 327.85938 37.55625Q327.0625 37.15 326.67188 36.5875Q326.29688 36.009377 326.29688 35.228127Q326.29688 33.93125 327.39062 33.040627Q328.48438 32.134377 330.20312 32.134377Q332.0 32.134377 333.10938 33.071877Q334.23438 33.99375 334.23438 35.43125L332.40625 35.43125Q332.40625 34.696877 331.78125 34.165627Q331.15625 33.61875 330.20312 33.61875Q329.20312 33.61875 328.64062 34.05625Q328.09375 34.478127 328.09375 35.18125Q328.09375 35.821877 328.60938 36.165627Q329.125 36.49375 330.48438 36.80625Q331.84375 37.103127 332.67188 37.525Q333.51562 37.93125 333.92188 38.525Q334.32812 39.11875 334.32812 39.9625Q334.32812 41.384377 333.1875 42.24375Q332.0625 43.103127 330.25 43.103127Q328.98438 43.103127 328.0 42.65Q327.03125 42.196877 326.46875 41.4Q325.92188 40.5875 325.92188 39.65L327.73438 39.65Q327.78125 40.55625 328.45312 41.0875Q329.14062 41.61875 330.25 41.61875Q331.28125 41.61875 331.89062 41.2125Q332.51562 40.790627 332.51562 40.103127ZM339.3125 38.009377L338.1875 39.18125L338.1875 42.9L336.375 42.9L336.375 27.900002L338.1875 27.900002L338.1875 36.978127L339.15625 35.80625L342.4375 32.3375L344.64062 32.3375L340.53125 36.74375L345.125 42.9L343.0 42.9L339.3125 38.009377ZM348.8125 29.775002L348.8125 32.3375L350.79688 32.3375L350.79688 33.728127L348.8125 33.728127L348.8125 40.275Q348.8125 40.915627 349.07812 41.24375Q349.34375 41.55625 349.98438 41.55625Q350.29688 41.55625 350.84375 41.43125L350.84375 42.9Q350.125 43.103127 349.45312 43.103127Q348.25 43.103127 347.625 42.36875Q347.01562 41.634377 347.01562 40.275L347.01562 33.728127L345.09375 33.728127L345.09375 32.3375L347.01562 32.3375L347.01562 29.775002L348.8125 29.775002ZM352.89062 37.525Q352.89062 35.9625 353.5 34.728127Q354.10938 33.478127 355.1875 32.80625Q356.28125 32.134377 357.6875 32.134377Q359.84375 32.134377 361.17188 33.634377Q362.51562 35.11875 362.51562 37.603127L362.51562 37.728127Q362.51562 39.275 361.92188 40.509377Q361.32812 41.728127 360.21875 42.415627Q359.125 43.103127 357.70312 43.103127Q355.5625 43.103127 354.21875 41.603127Q352.89062 40.103127 352.89062 37.65L352.89062 37.525ZM354.70312 37.728127Q354.70312 39.49375 355.51562 40.55625Q356.34375 41.61875 357.70312 41.61875Q359.07812 41.61875 359.89062 40.540627Q360.70312 39.4625 360.70312 37.525Q360.70312 35.775 359.875 34.696877Q359.04688 33.61875 357.6875 33.61875Q356.34375 33.61875 355.51562 34.68125Q354.70312 35.74375 354.70312 37.728127ZM373.29688 37.728127Q373.29688 40.15 372.1875 41.634377Q371.09375 43.103127 369.20312 43.103127Q367.28125 43.103127 366.17188 41.86875L366.17188 46.9625L364.375 46.9625L364.375 32.3375L366.01562 32.3375L366.10938 33.509377Q367.20312 32.134377 369.17188 32.134377Q371.07812 32.134377 372.1875 33.571877Q373.29688 35.009377 373.29688 37.571877L373.29688 37.728127ZM371.48438 37.525Q371.48438 35.74375 370.71875 34.7125Q369.96875 33.665627 368.64062 33.665627Q367.0 33.665627 366.17188 35.11875L366.17188 40.18125Q366.98438 41.61875 368.65625 41.61875Q369.95312 41.61875 370.71875 40.5875Q371.48438 39.55625 371.48438 37.525Z" fill-rule="nonzero"/><path fill="#db4437" d="M390.0 30.9C390.0 30.347715 390.44772 29.9 391.0 29.9L401.0 29.9C401.55228 29.9 402.0 30.347715 402.0 30.9L402.0 40.9C402.0 41.452286 401.55228 41.9 401.0 41.9L391.0 41.9C390.44772 41.9 390.0 41.452286 390.0 40.9Z" fill-rule="nonzero"/><path fill="#757575" d="M413.0625 32.3375L413.10938 33.509377Q414.28125 32.134377 416.25 32.134377Q418.46875 32.134377 419.26562 33.8375Q419.79688 33.071877 420.64062 32.603127Q421.48438 32.134377 422.64062 32.134377Q426.10938 32.134377 426.17188 35.821877L426.17188 42.9L424.35938 42.9L424.35938 35.93125Q424.35938 34.790627 423.84375 34.228127Q423.32812 33.665627 422.10938 33.665627Q421.10938 33.665627 420.4375 34.275Q419.78125 34.86875 419.67188 35.884377L419.67188 42.9L417.85938 42.9L417.85938 35.978127Q417.85938 33.665627 415.59375 33.665627Q413.8125 33.665627 413.17188 35.18125L413.17188 42.9L411.35938 42.9L411.35938 32.3375L413.0625 32.3375ZM428.89062 37.525Q428.89062 35.9625 429.5 34.728127Q430.10938 33.478127 431.1875 32.80625Q432.28125 32.134377 433.6875 32.134377Q435.84375 32.134377 437.17188 33.634377Q438.51562 35.11875 438.51562 37.603127L438.51562 37.728127Q438.51562 39.275 437.92188 40.509377Q437.32812 41.728127 436.21875 42.415627Q435.125 43.103127 433.70312 43.103127Q431.5625 43.103127 430.21875 41.603127Q428.89062 40.103127 428.89062 37.65L428.89062 37.525ZM430.70312 37.728127Q430.70312 39.49375 431.51562 40.55625Q432.34375 41.61875 433.70312 41.61875Q435.07812 41.61875 435.89062 40.540627Q436.70312 39.4625 436.70312 37.525Q436.70312 35.775 435.875 34.696877Q435.04688 33.61875 433.6875 33.61875Q432.34375 33.61875 431.51562 34.68125Q430.70312 35.74375 430.70312 37.728127ZM449.3125 37.728127Q449.3125 40.15 448.20312 41.634377Q447.09375 43.103127 445.21875 43.103127Q443.20312 43.103127 442.10938 41.68125L442.03125 42.9L440.375 42.9L440.375 27.900002L442.17188 27.900002L442.17188 33.49375Q443.26562 32.134377 445.1875 32.134377Q447.10938 32.134377 448.20312 33.5875Q449.3125 35.040627 449.3125 37.571877L449.3125 37.728127ZM447.5 37.525Q447.5 35.68125 446.78125 34.68125Q446.07812 33.665627 444.75 33.665627Q442.95312 33.665627 442.17188 35.3375L442.17188 39.9Q443.0 41.55625 444.76562 41.55625Q446.0625 41.55625 446.78125 40.55625Q447.5 39.55625 447.5 37.525ZM453.32812 42.9L451.53125 42.9L451.53125 32.3375L453.32812 32.3375L453.32812 42.9ZM451.375 29.525002Q451.375 29.087502 451.64062 28.790627Q451.92188 28.478127 452.4375 28.478127Q452.96875 28.478127 453.23438 28.790627Q453.51562 29.087502 453.51562 29.525002Q453.51562 29.962502 453.23438 30.259377Q452.96875 30.556252 452.4375 30.556252Q451.92188 30.556252 451.64062 30.259377Q451.375 29.962502 451.375 29.525002ZM458.32812 42.9L456.53125 42.9L456.53125 27.900002L458.32812 27.900002L458.32812 42.9ZM465.75 43.103127Q463.60938 43.103127 462.25 41.696877Q460.90625 40.275 460.90625 37.915627L460.90625 37.571877Q460.90625 36.009377 461.5 34.775Q462.10938 33.540627 463.1875 32.8375Q464.26562 32.134377 465.53125 32.134377Q467.59375 32.134377 468.73438 33.49375Q469.875 34.853127 469.875 37.384377L469.875 38.134377L462.71875 38.134377Q462.75 39.696877 463.625 40.665627Q464.5 41.61875 465.84375 41.61875Q466.8125 41.61875 467.46875 41.228127Q468.14062 40.8375 468.64062 40.196877L469.73438 41.05625Q468.40625 43.103127 465.75 43.103127ZM465.53125 33.61875Q464.4375 33.61875 463.6875 34.415627Q462.95312 35.2125 462.78125 36.65L468.0625 36.65L468.0625 36.509377Q467.98438 35.134377 467.3125 34.384377Q466.65625 33.61875 465.53125 33.61875Z" fill-rule="nonzero"/></svg>