<svg fill="none" fill-rule="evenodd" preserveAspectRatio="xMidYMid meet" viewBox="0 0 32 32" xmlns="http://www.w3.org/2000/svg"><path d="m8.627 14.358v3.69c.58.998 1.4 1.834 2.382 2.435v-6.125h-2.389z" fill="#424242"/><path d="m13.044 10.972v10.54c.493.073.998.12 1.516.12.473 0 .934-.042 1.386-.104v-10.556z" fill="#616161"/><path d="m18.294 15.81v4.604a6.954 6.954 0 0 0 2.384-2.556v-2.05h-2.384zm5.74 6.233-1.99 1.992a.592.592 0 0 0 0 .836l4.956 4.959c.23.23.606.23.836 0l1.992-1.99a.594.594 0 0 0 0-.837l-4.957-4.956a.593.593 0 0 0 -.83 0" fill="#424242"/><path d="m14.615 2c-6.967 0-12.615 5.648-12.615 12.615s5.648 12.615 12.615 12.615c6.966 0 12.614-5.648 12.614-12.615.001-6.967-5.649-12.615-12.619-12.615m0 21.96a9.346 9.346 0 0 1 -9.346-9.345 9.347 9.347 0 1 1 9.346 9.346" fill="#757575"/></svg>