<svg viewBox="0 0 291.03 291.03" xmlns="http://www.w3.org/2000/svg" xmlns:xlink="http://www.w3.org/1999/xlink"><mask id="a" height="223.35" maskUnits="userSpaceOnUse" width="223.35" x="34.14" y="33.96"><rect fill="#f1f3f4" height="176.54" rx="13.94" width="176.54" x="57.54" y="57.37"/></mask><radialGradient id="b" cx="-478.16" cy="-16.4" gradientTransform="matrix(120 0 0 -120 57475.83 -1873.37)" gradientUnits="userSpaceOnUse" r="1.17"><stop offset="0" stop-color="#fff" stop-opacity=".12"/><stop offset="1" stop-color="#fff" stop-opacity="0"/></radialGradient><radialGradient id="c" cx="-463.07" cy="-52.65" gradientTransform="matrix(26.72 0 0 -26.72 12461.33 -1299.51)" gradientUnits="userSpaceOnUse" r="1.58"><stop offset="0" stop-color="#1a237e" stop-opacity=".2"/><stop offset="1" stop-color="#1a237e" stop-opacity="0"/></radialGradient><radialGradient id="d" cx="-472.19" cy="44.59" gradientTransform="matrix(-22.06 14.8 14.8 22.06 -10908.43 6172.4)" gradientUnits="userSpaceOnUse" r="1.78"><stop offset="0" stop-color="#1a237e" stop-opacity=".12"/><stop offset="1" stop-color="#1a237e" stop-opacity="0"/></radialGradient><radialGradient id="e" cx="-462.79" cy="-21.3" gradientTransform="matrix(48.08 26.16 26.12 -48.01 22961.78 11199.04)" gradientUnits="userSpaceOnUse" r=".66"><stop offset="0" stop-color="#1a237e" stop-opacity=".15"/><stop offset="1" stop-color="#1a237e" stop-opacity="0"/></radialGradient><circle cx="145.51" cy="145.51" fill="#f1f3f4" r="145.51"/><rect fill="#2879ff" height="176.54" rx="13.94" width="176.54" x="57.54" y="57.37"/><g fill="none" mask="url(#a)" stroke="#fff" stroke-opacity=".2" stroke-width=".5"><path d="m34.31 34.14 223 223"/><path d="m257.31 34.14-223 223"/><path d="m178 34.14v223"/><path d="m113.58 34.14v223"/><path d="m257.31 177.87h-223"/><path d="m257.31 113.41h-223"/><circle cx="145.81" cy="145.64" r="45.3"/><path d="m34.31 145.64h223"/><path d="m145.81 34.14v223"/></g><circle cx="145.81" cy="145.64" fill="url(#b)" r="69.69"/><path d="m220.15 57.37h-148.67a14 14 0 0 0 -13.94 13.93v1.16a14 14 0 0 1 13.94-13.93h148.67a14 14 0 0 1 13.94 13.94v-1.17a14 14 0 0 0 -13.94-13.94z" fill="#f1f3f4" opacity=".2"/><path d="m220.15 232.75h-148.67a14 14 0 0 1 -13.94-13.94v1.19a14 14 0 0 0 13.94 13.94h148.67a14 14 0 0 0 13.93-13.94v-1.16a14 14 0 0 1 -13.94 13.94z" opacity=".1"/><path d="m115 135.74a31.89 31.89 0 0 0 2.6 24.79l-31-53.23z" fill="url(#c)"/><path d="m152.75 177a31.84 31.84 0 0 0 20.43-15.1l-30.85 54z" fill="url(#d)"/><path d="m146.15 113.7h61.85l-38.82 10.37a31.79 31.79 0 1 1 -23.5-10.38z" fill="url(#e)"/><path d="m145.81 214.16a68.53 68.53 0 1 0 -68.53-68.53 68.53 68.53 0 0 0 68.53 68.53z" fill="none" stroke="#fff" stroke-width="2"/><circle cx="145.81" cy="145.64" fill="none" r="31.36" stroke="#fff" stroke-width="2"/><circle cx="145.81" cy="145.64" fill="none" r="22.07" stroke="#fff" stroke-width="2"/><g fill="#f1f3f4"><path d="m145.81 113.12h61.56v2.32h-61.56z"/><path d="m126.8 186.81h61.56v2.32h-61.56z" transform="matrix(.5 -.8660254 .8660254 .5 -84.005455 230.458283)"/><path d="m102.1 103.88h2.32v61.56h-2.32z" transform="matrix(.8660254 -.5 .5 .8660254 -53.500783 69.672359)"/></g></svg>