<svg viewBox="0 0 291.03 291.03" xmlns="http://www.w3.org/2000/svg" xmlns:xlink="http://www.w3.org/1999/xlink"><linearGradient id="a" gradientUnits="userSpaceOnUse" x1="164.185" x2="223.875" y1="171.93" y2="231.62"><stop offset="0" stop-color="#212121" stop-opacity=".2"/><stop offset="1" stop-color="#212121" stop-opacity="0"/></linearGradient><radialGradient id="b" cx="58.26" cy="68.9" gradientUnits="userSpaceOnUse" r="229.415"><stop offset="0" stop-color="#fff" stop-opacity=".1"/><stop offset="1" stop-color="#fff" stop-opacity="0"/></radialGradient><circle cx="145.51" cy="145.51" fill="#f1f3f4" r="145.51"/><path d="m237.61 91.19v121.2a12.53 12.53 0 0 1 -12.54 12.54h-158.81a12.53 12.53 0 0 1 -12.54-12.54v-121.2z" fill="#e1e1e1"/><path d="m66.26 66.11h158.81a12.53 12.53 0 0 1 12.54 12.54v12.54h-183.88v-12.54a12.53 12.53 0 0 1 12.53-12.54z" fill="#c2c2c2"/><path d="m225.07 66.11h-158.81a12.57 12.57 0 0 0 -12.53 12.54v1a12.57 12.57 0 0 1 12.53-12.5h158.81a12.57 12.57 0 0 1 12.54 12.54v-1a12.57 12.57 0 0 0 -12.54-12.58z" fill="#fff" fill-opacity=".2"/><path d="m53.73 91.19h183.88v1h-183.88z" fill="#212121" fill-opacity=".1"/><path d="m145.6 128.8a66.77 66.77 0 0 0 -66.76 66.87c0 1.4-.08 3.13 0 4.18h29.16a37 37 0 0 1 0-4.18 37.64 37.64 0 0 1 57.36-32l21-21a66.6 66.6 0 0 0 -40.76-13.87z" fill="#4285f4"/><path d="m186.32 142.63-21 21a37.59 37.59 0 0 1 17.91 32 37 37 0 0 1 0 4.18h29.26c.08-1 0-2.78 0-4.18a66.73 66.73 0 0 0 -26.17-53z" fill="#f44336"/><circle cx="70.44" cy="78.65" fill="#eee" r="4.18"/><circle cx="87.16" cy="78.65" fill="#eee" r="4.18"/><path d="m225.09 223.87h-158.87a12.57 12.57 0 0 1 -12.54-12.54v1a12.57 12.57 0 0 0 12.54 12.54h158.87a12.57 12.57 0 0 0 12.54-12.54v-1a12.57 12.57 0 0 1 -12.54 12.54z" fill="#212121" fill-opacity=".1"/><path d="m186.54 145.17a2.06 2.06 0 0 0 .4-1.22 2.1 2.1 0 0 0 -2.09-2.09 2.05 2.05 0 0 0 -1.29.46l-45.56 35.07a12.53 12.53 0 1 0 18.37 16.41l30.16-48.65z" fill="#9e9e9e"/><path d="m138 178.44 45.56-35.08a2.06 2.06 0 0 1 3.29 1.09 1.94 1.94 0 0 0 .08-.5 2.1 2.1 0 0 0 -2.09-2.09 2.05 2.05 0 0 0 -1.29.46l-45.55 35.06a12.48 12.48 0 0 0 -4.88 9.92v.56a12.52 12.52 0 0 1 4.88-9.42z" fill="#fff" opacity=".2"/><path d="m186.54 145.17-30.16 48.65a12.52 12.52 0 0 1 -23.22-5.93v.48a12.53 12.53 0 0 0 23.25 6.5l30.16-48.65a2.06 2.06 0 0 0 .4-1.22 1.85 1.85 0 0 0 -.08-.54 2.22 2.22 0 0 1 -.35.71z" fill="#212121" opacity=".2"/><path d="m186.51 142.69a2.06 2.06 0 0 1 0 2.48l-30.16 48.65a12.52 12.52 0 0 1 -18.84 3l28.07 28.07h59.47a12.53 12.53 0 0 0 12.54-12.54v-18.56z" fill="url(#a)"/><path d="m237.61 78.65a12.53 12.53 0 0 0 -12.54-12.54h-158.81a12.53 12.53 0 0 0 -12.53 12.54v133.73a12.53 12.53 0 0 0 12.54 12.54h158.8a12.53 12.53 0 0 0 12.54-12.54z" fill="url(#b)"/></svg>