<svg id="BIGQUERY_SECTION_cache10" fill="none" fill-rule="evenodd" height="100%" viewBox="0 0 32 32" width="100%" xmlns="http://www.w3.org/2000/svg" fit="" preserveAspectRatio="xMidYMid meet" focusable="false"><path d="M8.627 14.358v3.69c.58.998 1.4 1.834 2.382 2.435v-6.125H8.62z" fill="#424242"></path><path d="M13.044 10.972v10.54c.493.073.998.12 1.516.12.473 0 .934-.042 1.386-.104V10.972h-2.902z" fill="#616161"></path><path d="M18.294 15.81v4.604a6.954 6.954 0 0 0 2.384-2.556v-2.05h-2.384zm5.74 6.233l-1.99 1.992a.592.592 0 0 0 0 .836L27 29.83c.23.23.606.23.836 0l1.992-1.99a.594.594 0 0 0 0-.837l-4.957-4.956a.593.593 0 0 0-.83 0" fill="#424242"></path><path d="M14.615 2C7.648 2 2 7.648 2 14.615 2 21.582 7.648 27.23 14.615 27.23c6.966 0 12.614-5.648 12.614-12.615C27.23 7.648 21.58 2 14.61 2m0 21.96a9.346 9.346 0 0 1-9.346-9.345 9.347 9.347 0 1 1 9.346 9.346" fill="#757575"></path></svg>